<?xml version="1.0" encoding="utf-8"?>
<!-- Generator: Adobe Illustrator 22.1.0, SVG Export Plug-In . SVG Version: 6.00 Build 0)  -->
<svg version="1.1" id="Layer_1" xmlns="http://www.w3.org/2000/svg" xmlns:xlink="http://www.w3.org/1999/xlink" x="0px" y="0px"
	 viewBox="0 0 509.775 182.594" style="enable-background:new 0 0 509.775 182.594;" xml:space="preserve">
<style type="text/css">
	.st0{fill:#FFFFFF;}
</style>
<g>
	<path class="st0" d="M85.05,154.421v-10.898H22.06c-0.711,0-2.04-0.219-3.988-0.663c-1.951-0.44-3.813-0.931-5.581-1.463
		C4.161,139.271,0,132.096,0,119.87V103.39c0-2.301,0.619-5.091,1.859-8.373c1.238-3.276,2.832-6.154,4.785-8.637l3.19-3.988
		l44.119-61.929l2.659-3.72c3.19-4.959,6.552-8.548,10.1-10.765c3.542-2.213,7.708-3.322,12.491-3.322h5.847h17.81
		c5.135,0,8.858,0.358,11.163,1.063c2.299,0.709,4.426,2.126,6.377,4.253c3.543,3.72,5.316,9.746,5.316,18.073v80.269h2.126
		c6.91,0,12.315,1.64,16.214,4.916c3.895,3.28,5.847,7.841,5.847,13.687c0,3.368-0.888,6.558-2.657,9.569
		c-1.775,3.015-3.988,5.228-6.645,6.645c-1.953,0.888-3.988,1.507-6.114,1.861c-2.126,0.356-5.049,0.531-8.771,0.531v10.898v4.518
		c-0.179,6.91-2.084,12.451-5.714,16.612c-3.634,4.166-8.55,6.247-14.751,6.247c-6.204,0-11.123-2.126-14.752-6.379
		c-3.634-4.253-5.449-9.742-5.449-16.479V154.421z M85.05,106.315V40.133l-46.513,66.181H85.05z"/>
	<path class="st0" d="M251.431,0c12.759,0,24.675,2.392,35.75,7.175c11.071,4.784,20.772,11.296,29.105,19.536
		c8.325,8.239,14.881,17.898,19.669,28.97c4.784,11.076,7.175,22.903,7.175,35.482c0,12.584-2.392,24.452-7.175,35.615
		c-4.787,11.163-11.297,20.865-19.538,29.103c-8.237,8.24-17.9,14.752-28.97,19.536c-11.074,4.784-22.903,7.175-35.481,7.175
		c-12.586,0-24.452-2.392-35.615-7.175s-20.865-11.296-29.105-19.536c-8.239-8.239-14.751-17.94-19.536-29.103
		c-4.784-11.163-7.175-23.031-7.175-35.615c0-12.58,2.392-24.406,7.175-35.482c4.785-11.073,11.297-20.732,19.536-28.97
		c8.24-8.24,17.85-14.752,28.836-19.536S238.849,0,251.431,0z M251.431,40.399c-6.91,0-13.42,1.329-19.534,3.988
		c-6.114,2.657-11.521,6.245-16.212,10.763c-4.699,4.518-8.375,9.834-11.032,15.948c-2.657,6.112-3.988,12.624-3.988,19.534
		c0,7.268,1.33,14.001,3.988,20.201c2.657,6.204,6.287,11.653,10.898,16.344c4.607,4.697,10.009,8.373,16.216,11.03
		c6.199,2.659,12.843,3.988,19.934,3.988c7.083,0,13.685-1.329,19.799-3.988c6.114-2.657,11.471-6.287,16.081-10.898
		c4.603-4.605,8.237-10.007,10.898-16.212c2.657-6.201,3.984-12.845,3.984-19.934c0-6.91-1.327-13.464-3.984-19.669
		c-2.661-6.201-6.295-11.603-10.898-16.214c-4.611-4.605-10.013-8.239-16.216-10.896C265.162,41.727,258.518,40.399,251.431,40.399z
		"/>
	<path class="st0" d="M444.924,154.421v-10.898h-62.992c-0.711,0-2.04-0.219-3.988-0.663c-1.951-0.44-3.813-0.931-5.581-1.463
		c-8.331-2.126-12.491-9.302-12.491-21.528V103.39c0-2.301,0.619-5.091,1.861-8.373c1.236-3.276,2.832-6.154,4.784-8.637l3.19-3.988
		l44.121-61.929l2.657-3.72c3.19-4.959,6.554-8.548,10.1-10.765c3.543-2.213,7.708-3.322,12.491-3.322h5.849h17.808
		c5.137,0,8.858,0.358,11.163,1.063c2.301,0.709,4.426,2.126,6.379,4.253c3.542,3.72,5.314,9.746,5.314,18.073v80.269h2.126
		c6.912,0,12.315,1.64,16.214,4.916c3.895,3.28,5.847,7.841,5.847,13.687c0,3.368-0.888,6.558-2.657,9.569
		c-1.773,3.015-3.988,5.228-6.645,6.645c-1.951,0.888-3.988,1.507-6.114,1.861c-2.126,0.356-5.049,0.531-8.771,0.531v10.898v4.518
		c-0.177,6.91-2.084,12.451-5.714,16.612c-3.634,4.166-8.55,6.247-14.751,6.247c-6.204,0-11.123-2.126-14.751-6.379
		c-3.634-4.253-5.449-9.742-5.449-16.479V154.421z M444.924,106.315V40.133l-46.513,66.181H444.924z"/>
</g>
</svg>
