<?xml version="1.0" encoding="utf-8"?>
<!-- Generator: Adobe Illustrator 24.1.2, SVG Export Plug-In . SVG Version: 6.00 Build 0)  -->
<svg version="1.1" xmlns="http://www.w3.org/2000/svg" xmlns:xlink="http://www.w3.org/1999/xlink" x="0px" y="0px" width="350px"
	 height="350px" viewBox="0 0 350 350" style="enable-background:new 0 0 350 350;" xml:space="preserve">
<style type="text/css">
	.st0{fill:#23C9A9;}
	.st1{fill:#DDDDDD;}
	.st2{fill:#B8FFF1;}
	.st3{fill:#24B297;}
	.st4{fill:#FFFFFF;}
</style>
<g id="Layer_1">
	<rect class="st0" width="350" height="350"/>
</g>
<g id="Layer_2">
	<g>
		<path d="M264.566,209.158c-1.248-4.549-5.062-7.934-9.727-8.633v-68.376h5.958c1.645,0,2.979-1.334,2.979-2.979V99.379
			c0-1.647-1.334-2.979-2.979-2.979H129.716c-1.645,0-2.979,1.332-2.979,2.979v29.791c0,1.645,1.334,2.979,2.979,2.979h5.958v59.582
			h-2.979c-7.394-0.017-14.637,2.102-20.854,6.104v-15.041c0-1.647-1.334-2.979-2.979-2.979H88.009
			c-1.645,0-2.979,1.332-2.979,2.979v68.52c0,1.645,1.334,2.979,2.979,2.979h20.854c1.645,0,2.979-1.334,2.979-2.979v-15.04
			c6.219,3.999,13.46,6.118,20.854,6.102h48.917c3.389-0.006,6.763-0.451,10.037-1.324l64.5-17.278
			C262.496,222.044,266.256,215.516,264.566,209.158z M105.883,248.334H90.988v-62.561h14.896V248.334z M132.695,126.191v-23.833
			h125.123v23.833H132.695z M248.881,132.149v68.888l-34.575,9.272c-1.424-3.395-4.329-5.945-7.88-6.918l-40.141-10.766
			c-2.261-0.595-4.588-0.896-6.926-0.893h-17.726v-59.582H248.881z M254.603,218.018l-64.489,17.278
			c-2.774,0.74-5.631,1.117-8.502,1.122h-48.917c-7.093,0.016-13.998-2.285-19.662-6.555l-1.191-0.893v-23.833l1.191-0.895
			c5.664-4.269,12.57-6.572,19.662-6.553h26.664c1.82-0.001,3.634,0.234,5.395,0.7l40.128,10.757
			c2.371,0.653,4.106,2.685,4.377,5.131c0.032,0.122,0.071,0.243,0.119,0.361c-0.035,0.128-0.061,0.257-0.079,0.39
			c0.003,0.484-0.063,0.967-0.196,1.433c-0.701,2.597-3.053,4.402-5.743,4.406c-0.525,0.004-1.046-0.063-1.552-0.196l-25.322-6.79
			c-1.039-0.308-2.163-0.029-2.937,0.73c-0.772,0.759-1.074,1.878-0.784,2.922c0.289,1.043,1.123,1.849,2.178,2.101l25.322,6.793
			c1.011,0.266,2.054,0.4,3.101,0.399c5.356-0.003,10.05-3.586,11.465-8.753c0.166-0.598,0.278-1.209,0.337-1.826l36.318-9.739
			c0.259-0.065,0.54-0.132,0.804-0.176c2.966-0.383,5.755,1.492,6.521,4.381c0.134,0.503,0.201,1.023,0.196,1.543
			C259.014,214.953,257.207,217.315,254.603,218.018z"/>
		<rect x="90.988" y="185.771" class="st1" width="14.894" height="62.565"/>
		<path class="st2" d="M141.632,191.732v-59.584h107.248v68.891l-34.576,9.269c-1.423-3.394-4.329-5.942-7.879-6.918l-40.141-10.763
			c-2.258-0.596-4.586-0.898-6.926-0.894H141.632z"/>
		<rect x="132.694" y="102.359" class="st3" width="125.122" height="23.832"/>
		<path class="st4" d="M258.811,210.713c0.134,0.503,0.201,1.021,0.197,1.542c0.004,2.697-1.803,5.059-4.407,5.763l-64.487,17.279
			c-2.775,0.741-5.629,1.118-8.501,1.121h-48.919c-7.093,0.015-13.996-2.287-19.663-6.557l-1.188-0.89v-23.835l1.188-0.894
			c5.666-4.269,12.57-6.572,19.663-6.553h26.663c1.822,0,3.636,0.235,5.398,0.7l40.127,10.755c2.369,0.656,4.105,2.686,4.377,5.134
			c0.034,0.119,0.071,0.242,0.119,0.358c-0.034,0.13-0.06,0.261-0.078,0.391c0.004,0.484-0.063,0.969-0.197,1.434
			c-0.7,2.597-3.051,4.4-5.741,4.403c-0.525,0.007-1.047-0.06-1.553-0.194l-25.322-6.791c-1.039-0.309-2.165-0.03-2.939,0.73
			c-0.771,0.76-1.073,1.878-0.782,2.921c0.291,1.043,1.121,1.852,2.179,2.101l25.322,6.795c1.01,0.265,2.053,0.399,3.1,0.399
			c5.357-0.004,10.051-3.588,11.467-8.755c0.164-0.596,0.276-1.207,0.335-1.825l36.319-9.738c0.261-0.063,0.54-0.13,0.805-0.175
			C255.257,205.948,258.047,207.822,258.811,210.713z"/>
	</g>
</g>
</svg>
