<?xml version="1.0" encoding="utf-8"?>
<!-- Generator: Adobe Illustrator 19.2.1, SVG Export Plug-In . SVG Version: 6.00 Build 0)  -->
<!DOCTYPE svg PUBLIC "-//W3C//DTD SVG 1.1//EN" "http://www.w3.org/Graphics/SVG/1.1/DTD/svg11.dtd">
<svg version="1.1" id="Layer_1" xmlns="http://www.w3.org/2000/svg" xmlns:xlink="http://www.w3.org/1999/xlink" x="0px" y="0px"
	 width="187.6px" height="186.4px" viewBox="0 0 187.6 186.4" style="enable-background:new 0 0 187.6 186.4;" xml:space="preserve"
	>
<style type="text/css">
	.st0{fill:#E8E8E8;}
	.st1{fill:#F7F7F7;}
</style>
<rect x="-0.8" y="-1" class="st0" width="188.3" height="188.3"/>
<path class="st1" d="M152.7,39.8h-13.9l-0.9-5.6c-0.2-1.2-1.2-2-2.3-2c-0.1,0-0.3,0-0.4,0l-45.9,7.6H50.8c-1.4,0-2.5,1.1-2.5,2.5
	v4.2l-13.9,2.3c-1.3,0.2-2.1,1.4-1.9,2.7L49,152.3c0.2,1.2,1.2,2,2.3,2c0.1,0,0.3,0,0.4,0l45.8-7.5h55.1c1.4,0,2.5-1.1,2.5-2.5V42.3
	C155.2,40.9,154,39.8,152.7,39.8z M98.6,70.5c0,4.8-3.9,8.6-8.6,8.6c-4.8,0-8.7-3.8-8.7-8.6c0-4.7,3.9-8.6,8.7-8.6
	C94.7,61.9,98.6,65.8,98.6,70.5z M84.8,84.6L98.1,99l17.7-24.7l23.7,36.6H67.8L84.8,84.6z M135.2,34.9l0.8,4.9h-30.4L135.2,34.9z
	 M48.3,49.2v82.6L34.8,51.5L48.3,49.2z M51.6,151.8l-0.9-5.2c0,0,0,0,0,0h31.7L51.6,151.8z"/>
<g>
</g>
<g>
</g>
<g>
</g>
<g>
</g>
<g>
</g>
<g>
</g>
<g>
</g>
<g>
</g>
<g>
</g>
<g>
</g>
<g>
</g>
<g>
</g>
<g>
</g>
<g>
</g>
<g>
</g>
</svg>
