<?xml version="1.0" encoding="utf-8"?>
<!-- Generator: Adobe Illustrator 19.2.1, SVG Export Plug-In . SVG Version: 6.00 Build 0)  -->
<!DOCTYPE svg PUBLIC "-//W3C//DTD SVG 1.1//EN" "http://www.w3.org/Graphics/SVG/1.1/DTD/svg11.dtd">
<svg version="1.1" id="Layer_1" xmlns="http://www.w3.org/2000/svg" xmlns:xlink="http://www.w3.org/1999/xlink" x="0px" y="0px"
	 width="900px" height="400px" viewBox="0 0 900 400" style="enable-background:new 0 0 900 400;" xml:space="preserve">
<style type="text/css">
	.st0{fill:#9F65DB;}
	.st1{opacity:0.15;fill:#231F20;}
</style>
<rect class="st0" width="900" height="400"/>
<path class="st1" d="M507.5,148h-13.6l-0.9-5.5c-0.2-1.1-1.2-1.9-2.3-1.9c-0.1,0-0.2,0-0.4,0l-44.7,7.4h-37.5
	c-1.3,0-2.5,1.1-2.5,2.5v4.1l-13.6,2.2c-1.2,0.2-2.1,1.4-1.9,2.6l16.2,98.2c0.2,1.1,1.2,1.9,2.3,1.9c0.1,0,0.2,0,0.4,0l44.7-7.4
	h53.7c1.3,0,2.5-1.1,2.5-2.5v-99.2C510,149.1,508.8,148,507.5,148z M454.8,178c0,4.7-3.8,8.4-8.4,8.4c-4.7,0-8.5-3.7-8.5-8.4
	c0-4.6,3.8-8.4,8.5-8.4C451,169.6,454.8,173.4,454.8,178z M441.3,191.6l13,14l17.3-24.1l23.1,35.7h-69.9L441.3,191.6z M490.5,143.2
	l0.8,4.7h-29.6L490.5,143.2z M405.7,157.1v80.6l-13.2-78.4L405.7,157.1z M409,257.2l-0.9-5.1l0,0h31L409,257.2z"/>
<g>
</g>
<g>
</g>
<g>
</g>
<g>
</g>
<g>
</g>
<g>
</g>
<g>
</g>
<g>
</g>
<g>
</g>
<g>
</g>
<g>
</g>
<g>
</g>
<g>
</g>
<g>
</g>
<g>
</g>
<g>
</g>
<g>
</g>
<g>
</g>
<g>
</g>
<g>
</g>
<g>
</g>
</svg>
