<?xml version="1.0" encoding="utf-8"?>
<!-- Generator: Adobe Illustrator 23.0.1, SVG Export Plug-In . SVG Version: 6.00 Build 0)  -->
<svg version="1.1" xmlns="http://www.w3.org/2000/svg" xmlns:xlink="http://www.w3.org/1999/xlink" x="0px" y="0px" width="105px"
	 height="45px" viewBox="0 0 105 45" style="enable-background:new 0 0 105 45;" xml:space="preserve">
<style type="text/css">
	.st0{opacity:0.3;}
	.st1{opacity:0.25;}
	.st2{fill:#FFFFFF;}
</style>
<g id="Layer_1">
	<rect class="st0" width="105" height="45"/>
</g>
<g id="Layer_2">
	<g class="st1">
		<path class="st2" d="M17.76,32.473c-1.656,0-2.64,0.024-3.552,0.072c0.144-0.84,0.192-1.896,0.192-3.505V16.367
			c0-1.68-0.048-2.712-0.192-3.864h5.232c-0.168,1.248-0.192,1.92-0.192,3.792V28.2h5.809c2.041,0,2.856-0.024,3.984-0.168v4.608
			c-0.888-0.12-2.064-0.168-3.984-0.168H17.76z"/>
		<path class="st2" d="M49.441,22.392c0,6.336-3.864,10.537-9.697,10.537c-5.881,0-9.673-4.104-9.673-10.465
			c0-6.337,3.792-10.393,9.697-10.393C45.672,12.071,49.441,16.103,49.441,22.392z M44.448,22.44c0-3.889-1.776-6.241-4.68-6.241
			c-2.928,0-4.729,2.376-4.729,6.241c0,3.912,1.8,6.336,4.729,6.336C42.672,28.777,44.448,26.376,44.448,22.44z"/>
		<path class="st2" d="M63.48,25.176c-1.224,0-1.632,0.024-2.376,0.12v-4.249c0.888,0.12,1.464,0.144,3.145,0.144h1.92
			c1.224,0,2.112-0.024,3.168-0.12c-0.12,0.912-0.168,1.704-0.168,3.264v2.688c0,1.704,0.024,2.472,0.168,3.577
			c-1.32,0.84-1.968,1.152-3.048,1.512c-1.561,0.528-3.312,0.816-5.089,0.816c-3.048,0-5.424-0.84-7.128-2.568
			c-1.824-1.824-2.833-4.68-2.833-7.969c0-6.312,3.816-10.321,9.865-10.321c3,0,5.28,0.936,6.864,2.856
			c0.648,0.744,1.032,1.464,1.416,2.616l-4.896,1.128c-0.265-0.864-0.553-1.32-1.08-1.728c-0.625-0.504-1.417-0.744-2.425-0.744
			c-3.072,0-4.752,2.232-4.752,6.265c0,2.232,0.504,3.96,1.464,5.016c0.768,0.84,1.944,1.296,3.456,1.296
			c1.272,0,2.305-0.264,3.48-0.864v-2.736H63.48z"/>
		<path class="st2" d="M90.792,22.392c0,6.336-3.864,10.537-9.697,10.537c-5.88,0-9.673-4.104-9.673-10.465
			c0-6.337,3.793-10.393,9.697-10.393S90.792,16.103,90.792,22.392z M85.8,22.44c0-3.889-1.776-6.241-4.681-6.241
			c-2.929,0-4.729,2.376-4.729,6.241c0,3.912,1.8,6.336,4.729,6.336C84.024,28.777,85.8,26.376,85.8,22.44z"/>
	</g>
</g>
</svg>
