<?xml version="1.0" encoding="utf-8"?>
<!-- Generator: Adobe Illustrator 24.3.0, SVG Export Plug-In . SVG Version: 6.00 Build 0)  -->
<svg version="1.1" id="Layer_1" xmlns="http://www.w3.org/2000/svg" xmlns:xlink="http://www.w3.org/1999/xlink" x="0px" y="0px"
	 width="600px" height="600px" viewBox="0 0 600 600" style="enable-background:new 0 0 600 600;" xml:space="preserve">
<style type="text/css">
	.st0{fill:#23C9A9;}
	.st1{opacity:0.8;fill:#FFFFFF;enable-background:new    ;}
	.st2{fill:#FFFFFF;enable-background:new    ;}
</style>
<rect y="0.5" class="st0" width="600" height="600"/>
<g>
	<g>
		<path d="M473.826,201.512h-23.177V184.13c0-9.6-7.782-17.383-17.383-17.383c-9.6,0-17.383,7.782-17.383,17.383v17.383H201.086
			c-3.188-22.172-23.746-37.562-45.919-34.374c-19.973,2.872-34.798,19.99-34.787,40.169v183.966
			c0.027,23.189,18.819,41.981,42.008,42.008h311.438c3.2,0,5.794-2.594,5.794-5.794v-220.18
			C479.62,204.106,477.026,201.512,473.826,201.512z M427.472,184.13c0-3.2,2.594-5.794,5.794-5.794c3.2,0,5.794,2.594,5.794,5.794
			v5.794h-11.588V184.13z M427.472,201.512h11.588v5.794h-11.588V201.512z M427.472,218.895h11.588V363.75h-11.588V218.895z
			 M427.472,375.338h11.588v4.425l-5.794,11.588l-5.794-11.588V375.338z M131.968,207.306c0-16,12.971-28.971,28.971-28.971
			c16,0,28.971,12.971,28.971,28.971v145.471c-15.617-15.998-41.246-16.308-57.244-0.691c-0.236,0.23-0.468,0.463-0.698,0.698
			V207.306z M468.032,421.692H162.388c-16.793-0.018-30.401-13.627-30.42-30.42v-10.14c0-16,12.971-28.971,28.971-28.971
			c16,0,28.971,12.971,28.971,28.971c0,3.2,2.594,5.794,5.794,5.794s5.794-2.594,5.794-5.794V213.101h214.385v168.032
			c0.001,0.9,0.209,1.787,0.608,2.593l11.588,23.177c1.435,2.864,4.921,4.022,7.785,2.587c1.119-0.561,2.026-1.468,2.587-2.587
			l11.588-23.177c0.399-0.806,0.607-1.693,0.608-2.593V213.101h17.383V421.692z"/>
		<path d="M276.823,300.014h-57.942c-3.2,0-5.794,2.594-5.794,5.794v52.148c0,3.2,2.594,5.794,5.794,5.794h57.942
			c3.2,0,5.794-2.594,5.794-5.794v-52.148C282.617,302.608,280.023,300.014,276.823,300.014z M271.029,352.161h-46.354v-40.559
			h46.354V352.161z"/>
		<path d="M398.501,300.014H300c-3.2,0-5.794,2.594-5.794,5.794s2.594,5.794,5.794,5.794h98.501c3.2,0,5.794-2.594,5.794-5.794
			S401.701,300.014,398.501,300.014z"/>
		<path d="M398.501,317.396H300c-3.2,0-5.794,2.594-5.794,5.794s2.594,5.794,5.794,5.794h98.501c3.2,0,5.794-2.594,5.794-5.794
			S401.701,317.396,398.501,317.396z"/>
		<path d="M398.501,334.779H300c-3.2,0-5.794,2.594-5.794,5.794s2.594,5.794,5.794,5.794h98.501c3.2,0,5.794-2.594,5.794-5.794
			S401.701,334.779,398.501,334.779z"/>
		<path d="M351.423,352.161H300c-3.2,0-5.794,2.594-5.794,5.794s2.594,5.794,5.794,5.794h51.423c3.2,0,5.794-2.594,5.794-5.794
			S354.624,352.161,351.423,352.161z"/>
		<path d="M375.325,352.161h-5.794c-3.2,0-5.794,2.594-5.794,5.794s2.594,5.794,5.794,5.794h5.794c3.2,0,5.794-2.594,5.794-5.794
			S378.525,352.161,375.325,352.161z"/>
		<path d="M398.501,253.66h-179.62c-3.2,0-5.794,2.594-5.794,5.794v28.971c0,3.2,2.594,5.794,5.794,5.794h179.62
			c3.2,0,5.794-2.594,5.794-5.794v-28.971C404.296,256.254,401.701,253.66,398.501,253.66z M392.707,282.631H224.675v-17.383
			h168.032V282.631z"/>
	</g>
	<path class="st1" d="M132.667,352.075c-0.239,0.225-0.471,0.464-0.695,0.695V207.293c0-15.999,12.965-28.971,28.971-28.971
		c15.999,0,28.971,12.972,28.971,28.971v145.471C174.291,336.764,148.666,336.46,132.667,352.075z"/>
	<path class="st2" d="M439.064,189.91h-11.588v-5.794c0-3.201,2.593-5.794,5.794-5.794c3.194,0,5.794,2.593,5.794,5.794V189.91z"/>
	<rect x="427.475" y="201.499" class="st2" width="11.588" height="5.794"/>
	<rect x="427.475" y="218.881" class="st1" width="11.588" height="144.855"/>
	<polygon class="st2" points="433.27,391.338 427.475,379.75 427.475,375.325 439.064,375.325 439.064,379.75 	"/>
	<rect x="224.678" y="265.235" class="st2" width="168.032" height="17.383"/>
	<rect x="224.678" y="311.588" class="st2" width="46.354" height="40.559"/>
	<path class="st1" d="M450.652,213.087v168.032c-0.007,0.898-0.21,1.789-0.608,2.593l-11.588,23.177
		c-0.565,1.123-1.47,2.028-2.593,2.586c-2.861,1.434-6.345,0.282-7.779-2.586l-11.588-23.177c-0.406-0.804-0.608-1.695-0.608-2.593
		V213.087H201.502v168.032c0,3.201-2.6,5.794-5.794,5.794c-3.201,0-5.794-2.593-5.794-5.794c0-15.999-12.972-28.971-28.971-28.971
		c-16.006,0-28.971,12.972-28.971,28.971v10.14c0.015,16.796,13.624,30.405,30.42,30.42h305.644V213.087H450.652z M282.62,357.942
		c0,3.201-2.6,5.794-5.794,5.794h-57.942c-3.201,0-5.794-2.593-5.794-5.794v-52.148c0-3.201,2.593-5.794,5.794-5.794h57.942
		c3.194,0,5.794,2.593,5.794,5.794V357.942z M351.427,363.736h-51.424c-3.201,0-5.794-2.593-5.794-5.794
		c0-3.201,2.593-5.794,5.794-5.794h51.424c3.194,0,5.794,2.593,5.794,5.794C357.221,361.143,354.621,363.736,351.427,363.736z
		 M375.328,363.736h-5.794c-3.201,0-5.794-2.593-5.794-5.794c0-3.201,2.593-5.794,5.794-5.794h5.794
		c3.194,0,5.794,2.593,5.794,5.794C381.122,361.143,378.522,363.736,375.328,363.736z M398.504,346.354h-98.501
		c-3.201,0-5.794-2.593-5.794-5.794c0-3.201,2.593-5.794,5.794-5.794h98.501c3.194,0,5.794,2.593,5.794,5.794
		C404.299,343.761,401.699,346.354,398.504,346.354z M398.504,328.971h-98.501c-3.201,0-5.794-2.593-5.794-5.794
		s2.593-5.794,5.794-5.794h98.501c3.194,0,5.794,2.593,5.794,5.794S401.699,328.971,398.504,328.971z M398.504,311.588h-98.501
		c-3.201,0-5.794-2.593-5.794-5.794s2.593-5.794,5.794-5.794h98.501c3.194,0,5.794,2.593,5.794,5.794
		S401.699,311.588,398.504,311.588z M404.299,288.412c0,3.201-2.6,5.794-5.794,5.794h-179.62c-3.201,0-5.794-2.593-5.794-5.794
		v-28.971c0-3.201,2.593-5.794,5.794-5.794h179.62c3.194,0,5.794,2.593,5.794,5.794V288.412z"/>
</g>
</svg>
