<?xml version="1.0" encoding="utf-8"?>
<!-- Generator: Adobe Illustrator 25.1.0, SVG Export Plug-In . SVG Version: 6.00 Build 0)  -->
<svg version="1.1" id="Layer_1" xmlns="http://www.w3.org/2000/svg" xmlns:xlink="http://www.w3.org/1999/xlink" x="0px" y="0px"
	 width="600px" height="600px" viewBox="0 0 600 600" style="enable-background:new 0 0 600 600;" xml:space="preserve">
<style type="text/css">
	.st0{fill:#23C9A9;}
	.st1{fill:#FFFFFF;}
	.st2{opacity:0.8;fill:#FFFFFF;enable-background:new    ;}
</style>
<g>
	<g>
	</g>
	<g>
	</g>
	<g>
	</g>
	<g>
	</g>
	<g>
	</g>
	<g>
	</g>
	<g>
	</g>
	<g>
	</g>
	<g>
	</g>
	<g>
	</g>
	<g>
	</g>
	<g>
	</g>
	<g>
	</g>
	<g>
	</g>
	<g>
	</g>
</g>
<g>
	<rect y="0.5" class="st0" width="600" height="600"/>
	<g>
		<g>
			<path d="M267.435,387.5c2.22,1.19,5.04,1.05,7.13-0.34l79.87-53.25c1.94-1.29,3.09-3.45,3.09-5.78c0-2.32-1.15-4.48-3.09-5.78
				l-79.87-53.25c-1.17-0.77-2.51-1.16-3.85-1.16c-1.13,0-2.25,0.27-3.28,0.82c-2.26,1.21-3.67,3.55-3.67,6.12v106.5
				C263.765,383.95,265.175,386.29,267.435,387.5z M277.655,287.85l60.41,40.28l-60.41,40.28V287.85z"/>
			<path d="M459.745,204.04h-319.5c-3.83,0-6.94,3.11-6.94,6.94v234.3c0,3.83,3.11,6.95,6.94,6.95h319.5c3.83,0,6.95-3.12,6.95-6.95
				v-234.3C466.695,207.15,463.575,204.04,459.745,204.04z M452.805,438.34h-305.62V217.92h305.62V438.34z"/>
			<path d="M172.195,175.32h255.61c3.82,0,6.94-3.11,6.94-6.94c0-3.83-3.12-6.94-6.94-6.94h-255.61c-3.83,0-6.94,3.11-6.94,6.94
				C165.255,172.21,168.365,175.32,172.195,175.32z"/>
			<path d="M204.145,132.72h191.7c3.83,0,6.95-3.11,6.95-6.94s-3.12-6.95-6.95-6.95h-191.7c-3.83,0-6.94,3.12-6.94,6.95
				S200.315,132.72,204.145,132.72z"/>
		</g>
		<polygon class="st1" points="277.655,287.843 277.655,368.403 338.065,328.123 		"/>
		<path class="st2" d="M147.185,217.913v220.42h305.62v-220.42H147.185z M354.435,333.903l-79.87,53.25
			c-2.09,1.39-4.91,1.53-7.13,0.34c-2.26-1.21-3.67-3.55-3.67-6.12v-106.5c0-2.57,1.41-4.91,3.67-6.12
			c1.03-0.55,2.15-0.82,3.28-0.82c1.34,0,2.68,0.39,3.85,1.16l79.87,53.25c1.94,1.3,3.09,3.46,3.09,5.78
			C357.525,330.453,356.375,332.613,354.435,333.903z"/>
	</g>
</g>
</svg>
