<?xml version="1.0" encoding="utf-8"?>
<!-- Generator: Adobe Illustrator 24.2.3, SVG Export Plug-In . SVG Version: 6.00 Build 0)  -->
<svg version="1.1" id="Layer_1" xmlns="http://www.w3.org/2000/svg" xmlns:xlink="http://www.w3.org/1999/xlink" x="0px" y="0px"
	 width="600px" height="600px" viewBox="0 0 600 600" style="enable-background:new 0 0 600 600;" xml:space="preserve">
<style type="text/css">
	.st0{fill:#23C9A9;}
	.st1{fill:#FFFFFF;}
	.st2{opacity:0.8;fill:#FFFFFF;enable-background:new    ;}
	.st3{opacity:0.5;fill:#FFFFFF;enable-background:new    ;}
</style>
<rect y="0.5" class="st0" width="600" height="600"/>
<g>
	<g>
		<path d="M484.084,274.927l-81.714-0.93l-86.823-42.25l34.358-49.68c0.927-0.93,1.391-2.786,0.927-4.177
			c0-1.394-0.927-2.788-2.321-3.715l-37.143-26.001c-1.394-0.93-2.786-1.394-4.642-0.93c-1.394,0-2.324,0.93-3.25,2.321
			c-5.109,6.966-35.752,51.074-40.858,58.037l-2.786,4.18l-4.645-2.321c-4.177-2.324-9.284-3.25-13.464-3.25
			c-3.715,0-6.966,0.465-9.287,1.391l-43.644,19.038c-5.107,2.321-9.287,6.036-12.534,10.678l-62.682,98.431
			c-2.786,4.645-4.642,13.928-1.856,22.285c2.786,7.43,7.892,13.002,14.393,16.717c2.321,0.927,5.107,1.856,7.892,2.321l8.822,1.391
			l-10.213,14.858c-0.465,0.465-0.93,1.394-0.93,2.321l-7.43,50.61c-0.462,2.321,0.465,4.18,2.324,5.571
			c1.856,1.394,3.712,1.394,6.036,0.465l47.356-26.001l2.786,5.107c5.109,9.287,14.393,14.858,25.074,14.858
			c6.963,0,13.464-2.786,19.035-7.428l3.715-3.25l3.715,3.25c5.571,4.642,12.069,7.428,19.035,7.428
			c15.787,0,28.786-12.999,28.786-28.321v-13.928l8.357,4.177c41.788,20.429,92.859,19.5,133.718-0.465l8.357-4.177v37.143
			c0,1.856,0.93,3.715,2.786,4.642c1.394,0.93,3.715,1.394,5.109,0.465l45.965-23.215c1.856-0.927,3.25-2.786,3.25-4.642V280.499
			C489.658,277.248,486.873,274.927,484.084,274.927z M309.511,160.709l27.857,19.503l-19.5,28.321l-28.321-19.5L309.511,160.709z
			 M279.795,202.962l3.25-4.645l28.321,19.503l-71.966,102.608h-41.788l6.036-9.284
			C213.401,297.213,270.973,215.499,279.795,202.962z M139.112,366.395c-2.786,0-5.571-0.93-7.892-1.859
			c-6.036-3.25-9.287-8.822-9.287-15.323c0-2.321,0.465-5.107,1.394-7.428l62.214-98.431c2.324-2.786,4.645-5.107,7.895-6.501
			l43.179-18.57c3.25-0.93,6.501-1.394,9.287-0.465l8.357,1.856l-72.43,103.537l-1.394,0.465
			c-12.537,5.571-21.821,17.179-23.68,30.645c-1.856,5.107-5.107,8.357-9.748,10.213
			C144.221,365.93,141.897,366.395,139.112,366.395z M169.757,419.323l-32.966,17.644l6.501-39.464l15.323-21.359l4.642,6.966
			c3.715,5.571,8.822,10.213,14.858,12.999l6.036,3.25L169.757,419.323z M225.008,417.932c0,9.287-7.895,17.179-17.179,17.179
			c-9.751,0-17.644-7.892-17.644-17.179v-7.43l6.963-10.213h27.86V417.932z M270.509,417.932c0,9.287-7.428,17.179-17.179,17.179
			c-9.287,0-17.179-7.892-17.179-17.179v-17.644h34.358V417.932z M432.548,391.466l-3.712,1.391
			c-1.394,0.465-2.788,1.394-5.109,2.324c-10.678,5.571-33.893,16.714-67.324,16.714c-34.822,0-58.499-12.072-71.036-19.038
			c-2.321-1.391-4.642-2.321-6.036-2.786c-1.391-0.927-2.321-0.927-2.786-0.927h-80.323c-14.393,0-26.93-10.681-28.324-25.074
			l-0.462-0.927l0.462-1.394v-2.321l-0.462-0.93v-0.927c1.856-14.858,13.928-26.001,28.786-26.001h70.571
			c22.288,0,43.644-8.36,59.431-24.144c2.321-2.321,2.321-6.036,0-8.357c-2.321-1.859-6.036-1.859-7.892,0
			c-13.931,13.928-32.037,21.356-51.539,21.356H253.33l55.716-79.393l90.539,44.571c0.927,0,1.856,0.465,2.786,0.465h30.178V391.466
			z M478.051,414.216l-34.36,17.179V286.07h34.36V414.216z"/>
	</g>
	<path class="st1" d="M178.194,396.166l6.031,3.252l-14.397,19.956l-32.963,17.649l6.504-39.467l15.328-21.36l4.642,6.962
		C167.049,388.731,172.149,393.373,178.194,396.166z"/>
	<path class="st2" d="M197.219,400.335h27.863v17.649c0,9.283-7.893,17.177-17.177,17.177c-9.756,0-17.649-7.893-17.649-17.177
		v-7.435L197.219,400.335z"/>
	<path class="st2" d="M147.079,364.592c-2.779,1.39-5.1,1.862-7.893,1.862c-2.779,0-5.573-0.931-7.893-1.862
		c-6.031-3.252-9.283-8.824-9.283-15.328c0-2.321,0.459-5.1,1.39-7.421l62.216-98.432c2.321-2.793,4.642-5.114,7.893-6.504
		l43.178-18.566c3.252-0.931,6.504-1.404,9.297-0.473l8.352,1.862l-72.431,103.532l-1.39,0.473
		c-12.535,5.573-21.818,17.177-23.68,30.643C154.973,359.478,151.721,362.73,147.079,364.592z"/>
	<path class="st2" d="M236.228,400.335h34.353v17.649c0,9.283-7.421,17.177-17.177,17.177c-9.283,0-17.177-7.893-17.177-17.177
		V400.335z"/>
	<path class="st1" d="M203.723,311.201c9.756-13.939,67.33-95.652,76.155-108.187l3.238-4.642l28.322,19.497l-71.958,102.615
		h-41.788L203.723,311.201z"/>
	<polygon class="st3" points="317.941,208.586 289.619,189.089 309.589,160.767 337.439,180.264 	"/>
	<path class="st2" d="M402.448,286.117h30.17v105.408l-3.711,1.39c-1.39,0.459-2.779,1.39-5.1,2.321
		c-10.687,5.573-33.895,16.718-67.33,16.718c-34.826,0-58.492-12.076-71.027-19.039c-2.335-1.39-4.655-2.321-6.045-2.793
		c-1.39-0.917-2.321-0.917-2.779-0.917h-80.324c-14.397,0-26.932-10.687-28.322-25.084l-0.473-0.917l0.473-1.404v-2.321
		l-0.473-0.931v-0.917c1.862-14.856,13.939-26.001,28.794-26.001h70.568c22.291,0,43.65-8.366,59.437-24.153
		c2.321-2.321,2.321-6.031,0-8.352c-2.321-1.862-6.045-1.862-7.893,0c-13.939,13.925-32.046,21.359-51.544,21.359h-13.466
		l55.713-79.393l90.538,44.567C400.586,285.658,401.517,286.117,402.448,286.117z"/>
	<polygon class="st1" points="443.764,286.117 478.131,286.117 478.131,414.274 443.764,431.45 	"/>
</g>
</svg>
