<?xml version="1.0" encoding="utf-8"?>
<!-- Generator: Adobe Illustrator 25.1.0, SVG Export Plug-In . SVG Version: 6.00 Build 0)  -->
<svg version="1.1" id="Layer_1" xmlns="http://www.w3.org/2000/svg" xmlns:xlink="http://www.w3.org/1999/xlink" x="0px" y="0px"
	 width="600px" height="600px" viewBox="0 0 600 600" style="enable-background:new 0 0 600 600;" xml:space="preserve">
<style type="text/css">
	.st0{fill:#23C9A9;}
	.st1{opacity:0.8;fill:#FFFFFF;enable-background:new    ;}
	.st2{fill:#FFFFFF;}
</style>
<g>
	<g>
	</g>
	<g>
	</g>
	<g>
	</g>
	<g>
	</g>
	<g>
	</g>
	<g>
	</g>
	<g>
	</g>
	<g>
	</g>
	<g>
	</g>
	<g>
	</g>
	<g>
	</g>
	<g>
	</g>
	<g>
	</g>
	<g>
	</g>
	<g>
	</g>
</g>
<g>
	<rect y="0.5" class="st0" width="600" height="600"/>
	<g>
		<path d="M426.497,189.681c-21.391,0-38.724,17.327-38.724,38.724v12.908h-46.67c15.552-26.597,23.436-46.544,23.436-59.376
			c0-35.587-28.952-64.539-64.539-64.539c-35.587,0-64.539,28.952-64.539,64.539c0,12.832,7.883,32.781,23.436,59.376
			c-5.239,0-42.14,0-46.67,0v-12.908c0-21.353-17.37-38.724-38.724-38.724c-21.391,0-38.724,17.327-38.724,38.724v87.774v13.424
			v79.512c0,22.143,19.115,38.724,40.564,38.724h251.154c21.353,0,38.724-17.37,38.724-38.724v-180.71
			C465.221,207.051,447.851,189.681,426.497,189.681z M248.368,181.937c0-28.47,23.161-51.632,51.632-51.632
			c28.47,0,51.632,23.161,51.632,51.632c0,23.963-37.801,79.376-51.632,98.738C285.953,261.005,248.368,205.68,248.368,181.937z
			 M266.719,254.221c14.09,22.508,27.969,41.106,28.112,41.3c1.22,1.629,3.134,2.587,5.168,2.587c2.034,0,3.948-0.958,5.168-2.587
			c0.144-0.194,14.025-18.792,28.112-41.3h54.493v64.539h-82.61c-21.628-20.595-62.936-59.938-67.764-64.539H266.719z
			 M147.687,228.405c0-14.259,11.554-25.816,25.816-25.816c14.234,0,25.816,11.582,25.816,25.816v151.872
			c-6.855-6.144-15.908-9.885-25.816-9.885c-9.91,0-18.958,3.746-25.816,9.893v-50.681v-13.424V228.405z M175.343,434.931
			c-14.473,0-27.656-10.818-27.656-25.816c0-14.234,11.582-25.816,25.816-25.816c14.234,0,25.816,11.582,25.816,25.816
			c0,3.565,2.889,6.454,6.454,6.454s6.454-2.889,6.454-6.454V301.549l65.507,62.389l-74.543,70.993H175.343z M221.907,434.931
			l69.634-66.319c1.281-1.22,2.004-2.909,2.004-4.674s-0.724-3.456-2.004-4.674l-79.315-75.539v-29.504h6.454
			c0.441,0.421,76.376,72.74,79.452,75.667c1.2,1.142,2.793,1.78,4.45,1.78h85.192v25.816h-49.05c-1.712,0-3.353,0.681-4.563,1.891
			l-75.559,75.556H221.907z M426.497,434.931H276.859l64.539-64.539h46.375v38.724c0,3.565,2.889,6.454,6.454,6.454
			s6.454-2.889,6.454-6.454c0-16.692,15.631-29.345,32.799-24.911c10.48,2.708,18.832,12.386,18.832,24.911
			C452.313,423.349,440.731,434.931,426.497,434.931z M452.313,380.1c-4.437-3.951-9.779-6.89-15.605-8.393
			c-12.936-3.345-26.244-0.197-36.026,8.539c0-5.519,0-144.094,0-151.841c0-14.259,11.554-25.816,25.816-25.816
			c14.234,0,25.816,11.582,25.816,25.816V380.1z"/>
		<path d="M332.27,181.937c0-17.794-14.476-32.27-32.27-32.27c-17.794,0-32.27,14.476-32.27,32.27s14.476,32.27,32.27,32.27
			C317.794,214.206,332.27,199.73,332.27,181.937z M280.638,181.937c0-10.677,8.685-19.362,19.362-19.362
			c10.677,0,19.362,8.685,19.362,19.362s-8.685,19.362-19.362,19.362C289.323,201.298,280.638,192.613,280.638,181.937z"/>
	</g>
	<path class="st1" d="M173.5,370.406c-9.91,0-18.96,3.74-25.81,9.89v-151.88c0-14.26,11.55-25.82,25.81-25.82
		c14.24,0,25.82,11.59,25.82,25.82v151.87C192.46,374.146,183.41,370.406,173.5,370.406z"/>
	<path class="st1" d="M277.73,363.946l-74.54,71h-27.85c-14.47,0-27.65-10.82-27.65-25.82c0-14.23,11.58-25.81,25.81-25.81
		c14.24,0,25.82,11.58,25.82,25.81c0,3.57,2.89,6.45,6.45,6.45c3.57,0,6.46-2.88,6.46-6.45v-107.57L277.73,363.946z"/>
	<path class="st2" d="M300,130.316c-28.47,0-51.63,23.16-51.63,51.63c0,23.75,37.58,79.07,51.63,98.74
		c13.83-19.36,51.63-74.78,51.63-98.74C351.63,153.476,328.47,130.316,300,130.316z M300,214.216c-17.79,0-32.27-14.47-32.27-32.27
		c0-17.79,14.48-32.27,32.27-32.27s32.27,14.48,32.27,32.27C332.27,199.746,317.79,214.216,300,214.216z"/>
	<path class="st1" d="M305.16,318.776c-21.63-20.6-62.93-59.94-67.76-64.54h29.32c14.09,22.5,27.97,41.1,28.11,41.3
		c1.22,1.63,3.14,2.58,5.17,2.58s3.95-0.95,5.17-2.58c0.14-0.2,14.02-18.8,28.11-41.3h54.49v64.54H305.16z"/>
	<path class="st2" d="M334.16,359.386l-75.56,75.56h-36.69l69.63-66.32c1.28-1.22,2.01-2.91,2.01-4.68c0-1.76-0.73-3.45-2.01-4.67
		l-79.31-75.54v-29.5h6.45c0.44,0.42,76.38,72.74,79.45,75.66c1.2,1.15,2.8,1.78,4.45,1.78h85.19v25.82h-49.05
		C337.01,357.496,335.37,358.176,334.16,359.386z"/>
	<path class="st1" d="M452.31,409.126c0,14.23-11.58,25.82-25.81,25.82H276.86l64.54-64.54h46.37v38.72c0,3.57,2.89,6.45,6.46,6.45
		c3.56,0,6.45-2.88,6.45-6.45c0-16.69,15.63-29.34,32.8-24.91C443.96,386.926,452.31,396.606,452.31,409.126z"/>
	<path class="st1" d="M452.31,228.416v151.7c-4.43-3.95-9.78-6.89-15.6-8.4c-12.94-3.34-26.25-0.19-36.03,8.54v-151.84
		c0-14.26,11.56-25.82,25.82-25.82C440.73,202.596,452.31,214.186,452.31,228.416z"/>
</g>
</svg>
