<?xml version="1.0" encoding="utf-8"?>
<!-- Generator: Adobe Illustrator 25.1.0, SVG Export Plug-In . SVG Version: 6.00 Build 0)  -->
<svg version="1.1" xmlns="http://www.w3.org/2000/svg" xmlns:xlink="http://www.w3.org/1999/xlink" x="0px" y="0px" width="600px"
	 height="750px" viewBox="0 0 600 750" style="enable-background:new 0 0 600 750;" xml:space="preserve">
<style type="text/css">
	.st0{fill:#23C9A9;}
	.st1{fill:#DDDDDD;}
	.st2{fill:#B8FFF1;}
	.st3{fill:#24B297;}
	.st4{fill:#FFFFFF;}
</style>
<g id="Layer_1">
	<g id="Layer_2_1_">
		<rect class="st0" width="600" height="750"/>
	</g>
</g>
<g id="Layer_2">
	<g id="Layer_2_2_">
		<g>
			<path d="M457.073,434.296c-2.189-7.978-8.877-13.914-17.058-15.14V299.244h10.449c2.885,0,5.224-2.339,5.224-5.224v-52.245
				c0-2.888-2.34-5.224-5.224-5.224H220.584c-2.885,0-5.224,2.336-5.224,5.224v52.245c0,2.885,2.339,5.224,5.224,5.224h10.449
				v104.49h-5.224c-12.967-0.03-25.669,3.686-36.572,10.705v-26.378c0-2.888-2.339-5.224-5.224-5.224h-36.57
				c-2.885,0-5.224,2.336-5.224,5.224v120.165c0,2.885,2.339,5.224,5.224,5.224h36.572c2.885,0,5.224-2.339,5.224-5.224V481.85
				c10.906,7.013,23.605,10.729,36.572,10.701h85.787c5.943-0.011,11.86-0.791,17.602-2.322l113.115-30.301
				C453.443,456.894,460.037,445.446,457.073,434.296z M178.788,502.999h-26.122V393.285h26.123v109.714H178.788z M225.809,288.795
				v-41.796h219.43v41.796H225.809z M429.566,299.244v120.81l-60.635,16.26c-2.497-5.954-7.592-10.426-13.819-12.132l-70.396-18.881
				c-3.965-1.043-8.046-1.571-12.146-1.566h-31.086v-104.49h188.083V299.244z M439.601,449.834l-113.095,30.301
				c-4.865,1.298-9.875,1.959-14.91,1.968h-85.787c-12.439,0.028-24.549-4.007-34.482-11.496l-2.089-1.566v-41.796l2.089-1.57
				c9.933-7.487,22.044-11.525,34.482-11.492h46.761c3.192-0.002,6.373,0.41,9.461,1.228l70.373,18.865
				c4.158,1.145,7.201,4.709,7.676,8.998c0.056,0.214,0.125,0.426,0.209,0.633c-0.061,0.224-0.107,0.451-0.139,0.684
				c0.005,0.849-0.11,1.696-0.344,2.513c-1.229,4.554-5.354,7.72-10.072,7.727c-0.921,0.007-1.834-0.11-2.722-0.344l-44.408-11.908
				c-1.822-0.54-3.793-0.051-5.151,1.28c-1.354,1.331-1.883,3.293-1.375,5.124c0.507,1.829,1.969,3.243,3.82,3.685l44.408,11.913
				c1.773,0.466,3.602,0.701,5.438,0.7c9.393-0.005,17.625-6.289,20.106-15.35c0.291-1.049,0.488-2.12,0.591-3.202l63.691-17.079
				c0.454-0.114,0.947-0.231,1.41-0.309c5.202-0.672,10.093,2.617,11.436,7.683c0.235,0.882,0.352,1.794,0.344,2.706
				C447.336,444.459,444.167,448.601,439.601,449.834z"/>
			<rect x="152.666" y="393.282" class="st1" width="26.12" height="109.721"/>
			<path class="st2" d="M241.482,403.736V299.242h188.083v120.815l-60.637,16.255c-2.496-5.952-7.592-10.421-13.818-12.132
				l-70.396-18.875c-3.96-1.045-8.043-1.575-12.146-1.568h-31.086V403.736z"/>
			<rect x="225.807" y="247.001" class="st3" width="219.429" height="41.795"/>
			<path class="st4" d="M446.98,437.023c0.235,0.882,0.352,1.791,0.345,2.704c0.007,4.73-3.162,8.872-7.729,10.107l-113.092,30.302
				c-4.867,1.299-9.872,1.961-14.908,1.966h-85.79c-12.439,0.026-24.545-4.011-34.483-11.499l-2.083-1.561v-41.8l2.083-1.568
				c9.937-7.487,22.044-11.525,34.483-11.492h46.759c3.195,0,6.377,0.412,9.467,1.228l70.371,18.861
				c4.155,1.15,7.199,4.71,7.676,9.004c0.06,0.209,0.125,0.424,0.209,0.628c-0.06,0.228-0.105,0.458-0.137,0.686
				c0.007,0.849-0.11,1.699-0.345,2.515c-1.228,4.554-5.351,7.716-10.068,7.722c-0.921,0.012-1.836-0.105-2.724-0.34l-44.408-11.91
				c-1.822-0.542-3.797-0.053-5.154,1.28c-1.352,1.333-1.882,3.293-1.371,5.123c0.51,1.829,1.966,3.248,3.821,3.685l44.408,11.917
				c1.771,0.465,3.6,0.7,5.437,0.7c9.395-0.007,17.627-6.292,20.11-15.354c0.288-1.045,0.484-2.117,0.587-3.201l63.693-17.078
				c0.458-0.11,0.947-0.228,1.412-0.307C440.748,428.666,445.641,431.953,446.98,437.023z"/>
		</g>
	</g>
</g>
</svg>
