<?xml version="1.0" encoding="utf-8"?>
<!-- Generator: Adobe Illustrator 24.2.0, SVG Export Plug-In . SVG Version: 6.00 Build 0)  -->
<svg version="1.1" id="Layer_1" xmlns="http://www.w3.org/2000/svg" xmlns:xlink="http://www.w3.org/1999/xlink" x="0px" y="0px"
	 width="600px" height="600px" viewBox="0 0 600 600" style="enable-background:new 0 0 600 600;" xml:space="preserve">
<style type="text/css">
	.st0{fill:#23C9A9;}
	.st1{opacity:0.8;fill:#FFFFFF;}
	.st2{fill:#FFFFFF;}
</style>
<g id="Layer_2_1_">
	<rect y="0.5" class="st0" width="600" height="600"/>
</g>
<g>
	<path d="M168.571,247.67c16.229-9.254,24.808-31.514,24.808-64.372v-45.579c0-2.246-1.823-4.07-4.07-4.07h-78.135
		c-2.238,0-4.07,1.823-4.07,4.07v45.579c0,32.833,8.587,55.093,24.816,64.372l1.229,0.708v77.834l-0.814,0.724
		c-3.606,3.207-5.681,7.813-5.697,12.64v110.683c0,9.425,7.675,17.092,17.092,17.092h13.022c9.425,0,17.092-7.667,17.092-17.092
		V339.567c-0.008-4.818-2.084-9.425-5.689-12.632l-0.822-0.724v-77.842L168.571,247.67z M165.706,450.258
		c0,4.94-4.013,8.953-8.953,8.953H143.73c-4.932,0-8.953-4.013-8.953-8.953v-15.464H147.8v-8.139h-13.022v-17.906H147.8v-8.139
		h-13.022v-17.906H147.8v-8.139h-13.022v-17.906h30.928V450.258z M165.706,348.52h-30.928v-8.953c0-4.94,4.021-8.953,8.953-8.953
		h13.022c4.94,0,8.953,4.013,8.953,8.953V348.52z M141.289,322.475V252.48h17.906v69.996H141.289z M150.242,244.341
		c-22.561,0-34.998-21.682-34.998-61.043v-41.509h17.906v52.09h8.139v-52.09h17.906v52.09h8.139v-52.09h17.906v41.509
		C185.24,222.658,172.811,244.341,150.242,244.341z"/>
	<path d="M490.551,127.521c-0.545-0.252-1.131-0.383-1.717-0.383c-0.936,0-1.864,0.326-2.605,0.944l-15.635,13.022
		c-15.847,13.169-24.93,32.548-24.905,53.156v112.75c0,2.246,1.831,4.07,4.07,4.07c4.94,0,8.953,4.013,8.953,8.953v9.352
		l-1.66,0.562c-6.772,2.271-11.338,8.595-11.362,15.733v111.09c0,9.425,7.675,17.092,17.092,17.092h13.022
		c9.425,0,17.092-7.667,17.092-17.092V131.208C492.903,129.637,491.975,128.189,490.551,127.521z M484.756,456.769
		c0,4.94-4.013,8.953-8.953,8.953h-13.022c-4.932,0-8.953-4.013-8.953-8.953v-15.464h13.022v-8.139h-13.022V415.26h13.022v-8.139
		h-13.022v-17.906h13.022v-8.139h-13.022v-17.906h30.928V456.769z M484.756,355.032h-30.928v-8.953c0-4.94,4.021-8.953,8.953-8.953
		h21.975V355.032z M484.756,328.987H466.85v-8.953c-0.024-7.187-4.607-13.633-11.395-16.034l-1.628-0.578V194.261
		c-0.016-18.174,7.984-35.275,21.967-46.897l8.961-7.472V328.987z"/>
	<path d="M306.519,192.251c-66.797,0.073-121.198,54.475-121.28,121.272c0,66.87,54.409,121.272,121.272,121.272
		c66.87,0,121.272-54.401,121.272-121.272S373.39,192.259,306.519,192.251z M306.511,426.655
		c-62.378,0-113.133-50.755-113.133-113.133c0-62.386,50.755-113.133,113.133-113.133c62.312,0.073,113.068,50.82,113.133,113.133
		C419.644,375.9,368.897,426.655,306.511,426.655z"/>
	<path d="M306.519,237.829c-41.696,0.041-75.652,34.005-75.701,75.693c0,41.737,33.956,75.693,75.693,75.693
		c41.737,0,75.693-33.956,75.693-75.693C382.204,271.786,348.256,237.838,306.519,237.829z M306.511,381.076
		c-37.244,0-67.554-30.302-67.554-67.554c0-37.252,30.31-67.554,67.554-67.554c37.212,0.041,67.513,30.342,67.554,67.554
		C374.065,350.775,343.764,381.076,306.511,381.076z"/>
</g>
<path class="st1" d="M238.957,313.523c0-37.252,30.31-67.554,67.554-67.554c37.212,0.041,67.513,30.342,67.554,67.554
	c0,37.252-30.302,67.554-67.554,67.554C269.267,381.077,238.957,350.775,238.957,313.523z"/>
<path class="st1" d="M167.334,193.879h-8.139v-52.09h-17.906v52.09h-8.139v-52.09h-17.906v41.509
	c0,39.36,12.436,61.043,34.998,61.043c22.57,0,34.998-21.682,34.998-61.043v-41.509h-17.906V193.879z"/>
<path class="st2" d="M134.778,374.565H147.8v8.139h-13.022v17.906H147.8v8.139h-13.022v17.906H147.8v8.139h-13.022v15.464
	c0,4.94,4.021,8.953,8.953,8.953h13.022c4.94,0,8.953-4.013,8.953-8.953v-93.599h-30.928V374.565z"/>
<path class="st2" d="M156.753,330.615h-13.022c-4.932,0-8.953,4.013-8.953,8.953v8.953h30.928v-8.953
	C165.706,334.627,161.693,330.615,156.753,330.615z"/>
<rect x="141.289" y="252.48" class="st1" width="17.906" height="69.996"/>
<path class="st1" d="M475.795,147.364c-13.983,11.623-21.983,28.723-21.967,46.897v109.161l1.628,0.578
	c6.788,2.401,11.37,8.847,11.395,16.034v8.953h17.906V139.892L475.795,147.364z"/>
<path class="st2" d="M306.511,200.39c-62.378,0-113.133,50.747-113.133,113.133c0,62.377,50.755,113.133,113.133,113.133
	c62.386,0,113.133-50.755,113.133-113.133C419.579,251.21,368.824,200.463,306.511,200.39z M306.511,389.216
	c-41.737,0-75.693-33.956-75.693-75.693c0.049-41.688,34.005-75.652,75.701-75.693c41.737,0.008,75.685,33.956,75.685,75.693
	C382.204,355.259,348.248,389.216,306.511,389.216z"/>
<path class="st2" d="M453.828,346.079v8.953h30.928v-17.906h-21.975C457.848,337.126,453.828,341.138,453.828,346.079z"/>
<path class="st2" d="M453.828,381.077h13.022v8.139h-13.022v17.906h13.022v8.139h-13.022v17.906h13.022v8.139h-13.022v15.464
	c0,4.94,4.021,8.953,8.953,8.953h13.022c4.94,0,8.953-4.013,8.953-8.953v-93.599h-30.928V381.077z"/>
</svg>
