<?xml version="1.0" encoding="utf-8"?>
<!-- Generator: Adobe Illustrator 25.1.0, SVG Export Plug-In . SVG Version: 6.00 Build 0)  -->
<svg version="1.1" id="Layer_1" xmlns="http://www.w3.org/2000/svg" xmlns:xlink="http://www.w3.org/1999/xlink" x="0px" y="0px"
	 width="600px" height="600px" viewBox="0 0 600 600" style="enable-background:new 0 0 600 600;" xml:space="preserve">
<style type="text/css">
	.st0{fill:#23C9A9;}
	.st1{opacity:0.8;fill:#FFFFFF;enable-background:new    ;}
	.st2{fill:#FFFFFF;}
</style>
<g>
	<rect y="0.5" class="st0" width="600" height="600"/>
	<g>
		<path d="M471.087,217.87h-22.254v-22.254c0-3.699-2.586-6.315-6.315-6.315h-22.254v-22.615c0-3.699-2.586-6.315-6.315-6.315
			H128.852c-3.729,0.03-6.315,2.616-6.315,6.315v209.13c0,3.338,2.586,6.315,6.315,6.315h22.254v22.615
			c0,3.338,2.586,6.315,6.315,6.315h22.254v22.254c0,3.338,2.586,6.315,6.315,6.315h285.156c3.699,0,6.315-2.977,6.315-6.315
			v-209.16C477.403,220.456,474.816,217.87,471.087,217.87z M134.777,369.53v-196.89h273.277v16.691H157.392
			c-3.699,0-6.315,2.586-6.315,6.315V369.56h-16.3V369.53z M163.317,398.46v-16.33V369.53V201.54h244.737h12.24h16.33v16.33h-16.33
			h-12.24H185.932c-3.699,0-6.315,2.586-6.315,6.315V369.53v12.601v16.33H163.317z M465.163,427H191.886v-15.939V398.46v-16.33
			V369.53v-139.42h216.167h12.24h16.33h12.24h16.33V427H465.163z"/>
		<path d="M305.798,266.818h-72.022c-2.798,0-5.181,2.28-5.181,5.181v72.022c0,2.798,2.383,5.078,5.181,5.078h72.022
			c2.798,0,5.181-2.28,5.181-5.078v-72.022C310.98,269.098,308.596,266.818,305.798,266.818z M259.165,287.129
			c3.73,0,6.736,3.005,6.736,6.736c0,3.73-3.005,6.632-6.736,6.632c-3.731,0-6.84-2.901-6.84-6.632
			C252.325,290.134,255.434,287.129,259.165,287.129z M241.756,325.265l13.264-20.415l10.467,11.191l13.886-19.275l18.446,28.498
			H241.756z"/>
		<g>
			<path d="M422.485,278.818H333c-3.313,0-6-2.687-6-6s2.687-6,6-6h89.484c3.313,0,6,2.687,6,6S425.798,278.818,422.485,278.818z"/>
		</g>
		<g>
			<path d="M422.485,310.881H333c-3.313,0-6-2.687-6-6s2.687-6,6-6h89.484c3.313,0,6,2.687,6,6S425.798,310.881,422.485,310.881z"/>
		</g>
		<g>
			<path d="M422.485,342.943H333c-3.313,0-6-2.687-6-6s2.687-6,6-6h89.484c3.313,0,6,2.687,6,6S425.798,342.943,422.485,342.943z"/>
		</g>
		<g>
			<path d="M422.485,377.12h-187.89c-3.313,0-6-2.687-6-6s2.687-6,6-6h187.89c3.313,0,6,2.687,6,6S425.798,377.12,422.485,377.12z"
				/>
		</g>
		<path class="st1" d="M408.065,189.332h-250.66c-3.7,0-6.31,2.58-6.31,6.31v173.92h-16.3v-196.92h273.27V189.332z"/>
		<path class="st1" d="M185.945,217.872c-3.7,0-6.31,2.58-6.31,6.31v174.28h-16.3v-196.92h273.3v16.33H185.945z"/>
		<path class="st2" d="M191.905,230.112v196.89h273.3v-196.89H191.905z M228.605,272.002c0-2.9,2.39-5.18,5.19-5.18h72.02
			c2.8,0,5.18,2.28,5.18,5.18v72.02c0,2.8-2.38,5.08-5.18,5.08h-72.02c-2.8,0-5.19-2.28-5.19-5.08V272.002z M422.495,377.122
			h-187.89c-3.31,0-6-2.69-6-6c0-3.32,2.69-6,6-6h187.89c3.32,0,6,2.68,6,6C428.495,374.432,425.815,377.122,422.495,377.122z
			 M422.495,342.942h-89.48c-3.31,0-6-2.69-6-6s2.69-6,6-6h89.48c3.32,0,6,2.69,6,6S425.815,342.942,422.495,342.942z
			 M422.495,310.882h-89.48c-3.31,0-6-2.69-6-6c0-3.32,2.69-6,6-6h89.48c3.32,0,6,2.68,6,6
			C428.495,308.192,425.815,310.882,422.495,310.882z M422.495,278.822h-89.48c-3.31,0-6-2.69-6-6c0-3.32,2.69-6,6-6h89.48
			c3.32,0,6,2.68,6,6C428.495,276.132,425.815,278.822,422.495,278.822z"/>
		<path class="st2" d="M252.327,293.862c0-3.73,3.11-6.73,6.84-6.73c3.73,0,6.73,3,6.73,6.73s-3,6.63-6.73,6.63
			C255.437,300.492,252.327,297.592,252.327,293.862z"/>
		<polygon class="st2" points="297.817,325.262 241.757,325.262 255.017,304.852 265.487,316.042 279.377,296.762 		"/>
	</g>
</g>
</svg>
