<?xml version="1.0" encoding="utf-8"?>
<!-- Generator: Adobe Illustrator 25.1.0, SVG Export Plug-In . SVG Version: 6.00 Build 0)  -->
<svg version="1.1" id="Layer_1" xmlns="http://www.w3.org/2000/svg" xmlns:xlink="http://www.w3.org/1999/xlink" x="0px" y="0px"
	 width="600px" height="600px" viewBox="0 0 600 600" style="enable-background:new 0 0 600 600;" xml:space="preserve">
<style type="text/css">
	.st0{fill:#23C9A9;}
	.st1{opacity:0.8;fill:#FFFFFF;}
	.st2{fill:#FFFFFF;}
</style>
<g>
	<rect y="0.5" class="st0" width="600" height="600"/>
	<g>
		<path d="M442.55,189.12H157.39c-3.7,0-6.31,2.59-6.31,6.31v186.88h0.06v22.25c0,3.34,2.58,6.32,6.31,6.32h285.16
			c3.7,0,6.31-2.98,6.31-6.32V195.4C448.86,191.71,446.28,189.12,442.55,189.12z M436.65,398.25h-273.3V201.36h273.3V398.25z"/>
		<path d="M277.258,238.068h-72.022c-2.798,0-5.181,2.28-5.181,5.181v72.022c0,2.798,2.383,5.078,5.181,5.078h72.022
			c2.798,0,5.181-2.28,5.181-5.078v-72.022C282.44,240.348,280.056,238.068,277.258,238.068z M230.625,258.379
			c3.73,0,6.736,3.005,6.736,6.736c0,3.73-3.005,6.632-6.736,6.632c-3.731,0-6.84-2.901-6.84-6.632
			C223.785,261.384,226.894,258.379,230.625,258.379z M213.216,296.515L226.48,276.1l10.467,11.191l13.886-19.275l18.446,28.498
			h-56.063V296.515z"/>
		<g>
			<path d="M393.945,250.068H304.46c-3.313,0-6-2.687-6-6s2.687-6,6-6h89.484c3.313,0,6,2.687,6,6S397.258,250.068,393.945,250.068z
				"/>
		</g>
		<g>
			<path d="M393.945,282.131H304.46c-3.313,0-6-2.687-6-6s2.687-6,6-6h89.484c3.313,0,6,2.687,6,6S397.258,282.131,393.945,282.131z
				"/>
		</g>
		<g>
			<path d="M393.945,314.193H304.46c-3.313,0-6-2.687-6-6s2.687-6,6-6h89.484c3.313,0,6,2.687,6,6S397.258,314.193,393.945,314.193z
				"/>
		</g>
		<g>
			<path d="M393.945,348.37h-187.89c-3.313,0-6-2.687-6-6s2.687-6,6-6h187.89c3.313,0,6,2.687,6,6S397.258,348.37,393.945,348.37z"
				/>
		</g>
		<path class="st1" d="M163.365,201.362v196.89h273.3v-196.89L163.365,201.362L163.365,201.362z M200.065,243.252
			c0-2.9,2.39-5.18,5.19-5.18h72.02c2.8,0,5.18,2.28,5.18,5.18v72.02c0,2.8-2.38,5.08-5.18,5.08h-72.02c-2.8,0-5.19-2.28-5.19-5.08
			L200.065,243.252L200.065,243.252z M393.955,348.372h-187.89c-3.31,0-6-2.69-6-6c0-3.32,2.69-6,6-6h187.89c3.32,0,6,2.68,6,6
			C399.955,345.682,397.275,348.372,393.955,348.372z M393.955,314.192h-89.48c-3.31,0-6-2.69-6-6s2.69-6,6-6h89.48
			c3.32,0,6,2.69,6,6S397.275,314.192,393.955,314.192z M393.955,282.132h-89.48c-3.31,0-6-2.69-6-6c0-3.32,2.69-6,6-6h89.48
			c3.32,0,6,2.68,6,6C399.955,279.442,397.275,282.132,393.955,282.132z M393.955,250.072h-89.48c-3.31,0-6-2.69-6-6
			c0-3.32,2.69-6,6-6h89.48c3.32,0,6,2.68,6,6C399.955,247.382,397.275,250.072,393.955,250.072z"/>
		<path class="st2" d="M223.787,265.112c0-3.73,3.11-6.73,6.84-6.73c3.73,0,6.73,3,6.73,6.73s-3,6.63-6.73,6.63
			C226.897,271.742,223.787,268.842,223.787,265.112z"/>
		<polygon class="st2" points="269.277,296.512 213.217,296.512 226.477,276.102 236.947,287.292 250.837,268.012 		"/>
	</g>
</g>
</svg>
