<?xml version="1.0" encoding="utf-8"?>
<!-- Generator: Adobe Illustrator 25.0.0, SVG Export Plug-In . SVG Version: 6.00 Build 0)  -->
<svg version="1.1" id="Layer_1" xmlns="http://www.w3.org/2000/svg" xmlns:xlink="http://www.w3.org/1999/xlink" x="0px" y="0px"
	 width="600px" height="600px" viewBox="0 0 600 600" style="enable-background:new 0 0 600 600;" xml:space="preserve">
<style type="text/css">
	.st0{fill:#23C9A9;}
	.st1{fill:#FFFFFF;}
	.st2{opacity:0.8;fill:#FFFFFF;enable-background:new    ;}
</style>
<rect y="0.5" class="st0" width="600" height="600"/>
<g>
	<path d="M431.985,168.01c-35.25-35.25-82.12-54.67-131.98-54.67c-49.86,0-96.74,19.42-131.99,54.67
		c-35.26,35.26-54.67,82.13-54.67,131.99c0,44,15.6,86.73,43.93,120.31c6.72,7.95,14.13,15.38,22.02,22.07
		c33.64,28.56,76.51,44.28,120.71,44.28c44.19,0,87.06-15.72,120.69-44.27c7.9-6.7,15.31-14.13,22.03-22.09
		c28.33-33.57,43.93-76.3,43.93-120.3C486.655,250.14,467.245,203.27,431.985,168.01z M407.255,429.69l-0.22,1.04l-0.82,0.67
		c-29.94,24.21-67.66,37.55-106.21,37.55c-38.56,0-76.28-13.34-106.22-37.55l-0.82-0.67l-0.22-1.04
		c-1.61-7.55-2.43-15.29-2.43-23.01c0-59.62,48.49-108.82,108.08-109.67l1.59-0.01l1.59,0.01c59.62,0.85,108.11,50.05,108.11,109.67
		C409.685,414.4,408.865,422.14,407.255,429.69z M249.585,228.88c0-27.8,22.62-50.42,50.42-50.42c27.79,0,50.41,22.62,50.41,50.42
		s-22.62,50.41-50.41,50.41h-0.01C272.205,279.29,249.585,256.68,249.585,228.88z M432.685,404.6l-5.11,6.47l-0.25-8.24
		c-0.95-32.24-13.97-62.65-36.65-85.63c-13.43-13.6-29.23-23.78-46.98-30.24l-4.98-1.82l4.11-3.33
		c16.08-13.04,25.3-32.33,25.3-52.93c0-37.56-30.56-68.12-68.12-68.12c-37.57,0-68.13,30.56-68.13,68.12
		c0,20.6,9.22,39.9,25.3,52.93l4.11,3.33l-4.98,1.82c-17.74,6.46-33.55,16.64-46.98,30.24c-22.68,22.98-35.7,53.39-36.65,85.63
		l-0.24,8.25l-5.11-6.48c-23.39-29.66-36.28-66.8-36.28-104.6c0-93.16,75.8-168.95,168.96-168.95
		c93.15,0,168.95,75.79,168.95,168.95C468.955,337.8,456.075,374.95,432.685,404.6z"/>
	<path class="st1" d="M299.995,279.29c-27.79,0-50.41-22.61-50.41-50.41s22.62-50.42,50.42-50.42c27.79,0,50.41,22.62,50.41,50.42
		s-22.62,50.41-50.41,50.41H299.995z"/>
	<path class="st1" d="M409.685,406.68c0,7.72-0.82,15.46-2.43,23.01l-0.22,1.04l-0.82,0.67c-29.94,24.21-67.66,37.55-106.21,37.55
		c-38.56,0-76.28-13.34-106.22-37.55l-0.82-0.67l-0.22-1.04c-1.61-7.55-2.43-15.29-2.43-23.01c0-59.62,48.49-108.82,108.08-109.67
		l1.59-0.01l1.59,0.01C361.195,297.86,409.685,347.06,409.685,406.68z"/>
	<path class="st2" d="M468.955,300c0,37.8-12.88,74.95-36.27,104.6l-5.11,6.47l-0.25-8.24c-0.95-32.24-13.97-62.65-36.65-85.63
		c-13.43-13.6-29.23-23.78-46.98-30.24l-4.98-1.82l4.11-3.33c16.08-13.04,25.3-32.33,25.3-52.93c0-37.56-30.56-68.12-68.12-68.12
		c-37.57,0-68.13,30.56-68.13,68.12c0,20.6,9.22,39.9,25.3,52.93l4.11,3.33l-4.98,1.82c-17.74,6.46-33.55,16.64-46.98,30.24
		c-22.68,22.98-35.7,53.39-36.65,85.63l-0.24,8.25l-5.11-6.48c-23.39-29.66-36.28-66.8-36.28-104.6
		c0-93.16,75.8-168.95,168.96-168.95C393.155,131.05,468.955,206.84,468.955,300z"/>
</g>
</svg>
