<?xml version="1.0" encoding="utf-8"?>
<!-- Generator: Adobe Illustrator 24.2.0, SVG Export Plug-In . SVG Version: 6.00 Build 0)  -->
<svg version="1.1" id="Layer_1" xmlns="http://www.w3.org/2000/svg" xmlns:xlink="http://www.w3.org/1999/xlink" x="0px" y="0px"
	 width="600px" height="600px" viewBox="0 0 600 600" style="enable-background:new 0 0 600 600;" xml:space="preserve">
<style type="text/css">
	.st0{fill:#41E0C4;}
	.st1{opacity:0.15;enable-background:new    ;}
</style>
<g>
	<g id="Layer_2_1_">
		<rect x="0" class="st0" width="600" height="600"/>
	</g>
	<g id="Layer_1_1_">
		<path class="st1" d="M378.3,228.9h-18.5l-1.2-7.5c-0.3-1.5-1.6-2.6-3.1-2.6c-0.2,0-0.3,0-0.5,0l-61,10h-51.2
			c-1.8,0-3.3,1.5-3.3,3.3v5.6l-18.5,3.1c-1.7,0.3-2.9,1.9-2.6,3.6l22.1,134.1c0.3,1.5,1.6,2.6,3.1,2.6c0.2,0,0.3,0,0.5,0l61-10
			h73.3c1.8,0,3.3-1.5,3.3-3.3V232.2C381.7,230.4,380.2,228.9,378.3,228.9z M306.4,269.8c0,6.4-5.2,11.4-11.4,11.4
			c-6.4,0-11.6-5-11.6-11.4c0-6.2,5.2-11.4,11.6-11.4C301.2,258.4,306.4,263.6,306.4,269.8z M288,288.5l17.8,19.2l23.6-32.9
			l31.5,48.7h-95.4L288,288.5z M355.1,222.4l1.1,6.5h-40.4L355.1,222.4z M239.5,241.5v110l-18-107L239.5,241.5z M243.9,378l-1.2-6.9
			l0,0H285L243.9,378z"/>
	</g>
</g>
</svg>
