<?xml version="1.0" encoding="utf-8"?>
<!-- Generator: Adobe Illustrator 22.0.1, SVG Export Plug-In . SVG Version: 6.00 Build 0)  -->
<svg version="1.1" id="Layer_1" xmlns="http://www.w3.org/2000/svg" xmlns:xlink="http://www.w3.org/1999/xlink" x="0px" y="0px"
	 viewBox="0 0 628.3 251.7" style="enable-background:new 0 0 628.3 251.7;" xml:space="preserve">
<style type="text/css">
	.st0{fill:#FFFFFF;}
	.st1{opacity:0.3;fill:#FFFFFF;}
	.st2{opacity:0.4;}
	.st3{opacity:0.1;}
</style>
<path class="st0" d="M394.5,0"/>
<g>
	<path class="st1" d="M222,55.7c0,0-41.9-47-136.5-24.8S-6.2,117.3,6.4,145.1c12.2,26.8,82.8,139.2,254.5,54.9
		c24.6-12.1,12.1,48.3,47.6,48.3c87.4,0.1,10.8-67.5,159.4-39.8s174.6-9,154.4-87.2C602.1,43.1,571.4-0.9,543,5.3
		c-29.6,6.5-36.9,70.6-85,57.9s-88.4-49.8-145.3-35.1S248.6,88.5,222,55.7z"/>
	<path class="st1" d="M398.9,218.9c-6.3,3.3-5.2,9.2,1,9.8c9.8,0.9,22.7,1.3,27.7,11.8c8.3,17.5,40.4,14.3,33.5-7.6
		S404.2,216.1,398.9,218.9z"/>
	<path class="st1" d="M266,219.6c6.7,0.8,7.9,6.6,0.7,7.2c-7.2,0.7-15.4,4.5-18.4,12.4c-3,8-27.2,16.1-25.3-0.8
		C224.9,221.6,261.6,219.1,266,219.6z"/>
	<g class="st2">
		<path class="st0" d="M21.9,122.2c-2.3,0-4.4-1.4-5.1-3.7C16.6,118.2,5.6,84,44.4,61.1c2.6-1.5,5.9-0.7,7.4,1.9
			c1.5,2.6,0.7,5.9-1.9,7.4C18.6,88.9,26.9,114.8,27,115c1,2.8-0.6,5.9-3.4,6.9C23,122.1,22.4,122.2,21.9,122.2z"/>
	</g>
	<g class="st2">
		<path class="st0" d="M579.8,199.8c-2.5,0-4.8-1.7-5.3-4.3c-0.6-2.9,1.2-5.8,4.2-6.4c28.4-6.1,25.4-27.7,25-30.2
			c-0.5-2.9,1.4-5.8,4.4-6.3c2.9-0.5,5.8,1.4,6.3,4.3c0.1,0.3,6.1,34.3-33.4,42.8C580.6,199.7,580.2,199.8,579.8,199.8z"/>
	</g>
	<g class="st2">
		<path class="st0" d="M454.4,240.6c-0.1,0-0.3,0-0.4,0c-1.3-0.2-2.1-1.4-1.8-2.7c0.1-0.7,0.8-6.4-8.3-8.9c-1.2-0.3-2-1.6-1.6-2.9
			c0.3-1.2,1.6-2,2.9-1.6c10.8,3,12.3,10.6,11.6,14.2C456.5,239.8,455.5,240.6,454.4,240.6z"/>
	</g>
	<g class="st2">
		<g>
			<path class="st0" d="M229.3,243.8c-1.1,0-2.1-0.8-2.3-1.9c-1.3-7.4,4.9-11.9,8.3-13.2c1.2-0.5,2.5,0.1,3,1.3
				c0.5,1.2-0.1,2.5-1.3,3c-0.3,0.1-6.3,2.6-5.4,8.1c0.2,1.3-0.6,2.5-1.9,2.7C229.6,243.8,229.4,243.8,229.3,243.8z"/>
		</g>
	</g>
	<g class="st3">
		<path d="M121.7,82.9c7.2,0,13.9,1.4,20.2,4.1c6.3,2.7,11.8,6.5,16.5,11.2c4.7,4.7,8.4,10.2,11.2,16.5c2.7,6.3,4.1,13.1,4.1,20.4
			c0,7-1.4,13.7-4.1,19.9c-2.7,6.2-6.5,11.7-11.3,16.4c-4.8,4.7-10.3,8.4-16.6,11.2c-6.3,2.7-13.1,4.1-20.2,4.1
			c-7.2,0-13.9-1.3-20.3-4c-6.4-2.7-11.9-6.3-16.6-11c-4.7-4.6-8.5-10-11.3-16.2c-2.8-6.2-4.2-12.8-4.2-19.8
			c0-7.4,1.4-14.4,4.1-20.8c2.7-6.5,6.5-12,11.2-16.7c4.7-4.7,10.2-8.4,16.6-11.2C107.3,84.3,114.2,82.9,121.7,82.9z M121.7,110.9
			c-3.4,0-6.5,0.6-9.5,1.9c-2.9,1.3-5.5,3-7.7,5.2c-2.2,2.2-3.9,4.7-5.1,7.7c-1.2,2.9-1.8,6.2-1.8,9.7c0,3.1,0.6,6,1.9,8.8
			c1.3,2.8,3,5.3,5.2,7.4c2.2,2.1,4.7,3.8,7.6,4.9c2.9,1.2,5.9,1.8,9.2,1.8c3.2,0,6.3-0.6,9.2-1.9c2.9-1.3,5.4-2.9,7.6-5.1
			c2.2-2.1,3.9-4.6,5.2-7.5c1.3-2.9,1.9-5.9,1.9-9.2c0-3.4-0.6-6.5-1.9-9.4c-1.3-2.9-2.9-5.4-5.1-7.5c-2.1-2.1-4.6-3.8-7.5-5.1
			C127.9,111.5,124.9,110.9,121.7,110.9z"/>
		<path d="M237.7,82.9c7.2,0,13.9,1.4,20.2,4.1c6.3,2.7,11.8,6.5,16.5,11.2c4.7,4.7,8.4,10.2,11.2,16.5c2.7,6.3,4.1,13.1,4.1,20.4
			c0,7-1.4,13.7-4.1,19.9c-2.7,6.2-6.5,11.7-11.3,16.4c-4.8,4.7-10.3,8.4-16.6,11.2c-6.3,2.7-13.1,4.1-20.2,4.1s-13.9-1.3-20.3-4
			c-6.4-2.7-11.9-6.3-16.6-11c-4.7-4.6-8.5-10-11.3-16.2c-2.8-6.2-4.2-12.8-4.2-19.8c0-7.4,1.4-14.4,4.1-20.8
			c2.7-6.5,6.5-12,11.2-16.7c4.7-4.7,10.2-8.4,16.6-11.2C223.3,84.3,230.2,82.9,237.7,82.9z M237.7,110.9c-3.4,0-6.5,0.6-9.5,1.9
			c-2.9,1.3-5.5,3-7.7,5.2c-2.2,2.2-3.9,4.7-5.1,7.7c-1.2,2.9-1.8,6.2-1.8,9.7c0,3.1,0.6,6,1.9,8.8c1.3,2.8,3,5.3,5.2,7.4
			c2.2,2.1,4.7,3.8,7.6,4.9c2.9,1.2,5.9,1.8,9.2,1.8c3.2,0,6.3-0.6,9.2-1.9c2.9-1.3,5.4-2.9,7.6-5.1c2.2-2.1,3.9-4.6,5.2-7.5
			c1.3-2.9,1.9-5.9,1.9-9.2c0-3.4-0.6-6.5-1.9-9.4c-1.3-2.9-2.9-5.4-5.1-7.5c-2.1-2.1-4.6-3.8-7.5-5.1
			C244,111.5,240.9,110.9,237.7,110.9z"/>
		<path d="M336,206.5v3.2c-0.1,4.9-1.4,8.7-3.9,11.5c-2.5,2.7-5.8,4.1-10,4.1c-4.2,0-7.6-1.4-10.2-4.2c-2.6-2.8-3.9-6.6-3.9-11.4
			v-3.2V101.6c0-3.4,0.1-5.9,0.4-7.6c0.3-1.7,0.8-3.2,1.7-4.6c2.2-3.9,6-5.9,11.4-5.9c6.6,0,11,3.4,13.3,10.1
			c4.5-3.9,8.9-6.7,13.3-8.3c4.4-1.6,9.5-2.4,15.4-2.4c7,0,13.5,1.3,19.5,3.9c6,2.6,11.1,6.2,15.4,10.8c4.3,4.6,7.6,10.1,10.1,16.5
			c2.5,6.4,3.7,13.3,3.7,20.7c0,7.4-1.2,14.3-3.7,20.6c-2.5,6.3-5.8,11.8-10.1,16.4c-4.3,4.6-9.3,8.2-15.2,10.8
			c-5.8,2.6-12.2,3.9-19.1,3.9c-5.5,0-10.4-0.8-14.8-2.3c-4.4-1.5-8.8-4-13.2-7.5V206.5z M359,158.7c3.2,0,6.3-0.6,9.2-1.9
			c2.9-1.3,5.4-2.9,7.6-5.1c2.2-2.1,3.9-4.6,5.2-7.4c1.3-2.8,1.9-5.8,1.9-9.1c0-3.4-0.6-6.5-1.9-9.5c-1.3-2.9-2.9-5.5-5.1-7.6
			c-2.1-2.1-4.6-3.8-7.5-5.1c-2.9-1.3-6-1.9-9.4-1.9c-3.2,0-6.3,0.6-9.2,1.9c-2.9,1.3-5.4,2.9-7.5,5.1c-2.1,2.1-3.8,4.6-5.1,7.5
			c-1.3,2.9-1.9,6-1.9,9.4c0,3.2,0.6,6.3,1.9,9.2c1.3,2.9,2.9,5.4,5.1,7.5c2.1,2.1,4.6,3.8,7.5,5.1
			C352.7,158.1,355.8,158.7,359,158.7z"/>
		<path d="M465.3,82.7c4.5,0,8.8,0.5,12.8,1.6c4.1,1.1,7.6,2.5,10.6,4.3c3,1.8,5.4,3.9,7.3,6.3c1.8,2.4,2.7,4.9,2.7,7.6
			c0,3.2-1.3,6.1-3.8,8.6c-2.5,2.5-5.5,3.8-8.8,3.8c-1.8,0-3.6-0.3-5.4-0.9c-1.8-0.6-4-1.7-6.6-3.3c-3.4-2-5.8-3.3-7.2-3.9
			c-1.4-0.6-2.9-0.9-4.4-0.9c-1.5,0-2.8,0.5-3.8,1.5c-1,1-1.5,2.1-1.5,3.4c0,2.4,1.2,4.3,3.6,5.7c2.4,1.4,6.8,2.9,13.3,4.6
			c4.8,1.3,8.4,2.4,11,3.3c2.5,0.9,4.9,1.9,7.2,3.1c4.4,2.4,7.7,5.7,10.1,10c2.4,4.3,3.6,9.1,3.6,14.4c0,5.2-1,9.9-2.9,14.2
			c-2,4.3-4.7,8-8.3,11.1c-3.6,3.1-7.9,5.5-12.8,7.2c-5,1.7-10.4,2.5-16.3,2.5c-5.5,0-10.7-0.8-15.8-2.3c-5.1-1.5-9.5-3.6-13.5-6.1
			c-3.9-2.5-7.1-5.4-9.4-8.7c-2.3-3.3-3.5-6.8-3.5-10.4c0-3.8,1.3-7.1,3.8-10c2.5-2.9,5.5-4.3,9.1-4.3c2.4,0,4.7,0.6,7.1,1.8
			c2.3,1.2,4.9,3,7.7,5.4c2.1,1.8,3.9,3.3,5.4,4.4c1.5,1.1,2.8,2,4,2.6c1.2,0.6,2.3,1.1,3.5,1.3c1.1,0.2,2.4,0.3,3.8,0.3
			c2.8,0,5.1-0.7,6.9-2.1c1.8-1.4,2.7-3.2,2.7-5.3c0-3.4-3.1-5.8-9.3-7.2c-3.9-1-8.2-2.2-12.8-3.8c-4.6-1.5-8.4-3-11.4-4.4
			c-4.6-2.4-8.4-5.8-11.2-10.3c-2.8-4.5-4.2-9.3-4.2-14.5c0-5.9,1.8-11.4,5.4-16.4c3.6-5.1,8.4-8.8,14.4-11.2
			C453,83.6,458.7,82.7,465.3,82.7z"/>
		<path d="M542.6,186.7c-5.1,0-9.4-1.8-13-5.4c-3.6-3.6-5.4-7.9-5.4-13s1.8-9.3,5.4-12.8c3.6-3.5,7.9-5.3,13-5.3
			c5.1,0,9.3,1.8,12.8,5.3c3.5,3.5,5.3,7.8,5.3,12.8s-1.8,9.4-5.3,13C551.9,184.9,547.7,186.7,542.6,186.7z M557.1,122.3v3.2
			c-0.1,5.1-1.5,9.1-4.1,12c-2.6,2.9-6.1,4.4-10.6,4.4c-4.5,0-8-1.5-10.7-4.5c-2.6-3-4-7-4-11.9v-3.2V61.8v-3.4
			c0.1-4.9,1.5-8.9,4.1-11.9c2.6-3,6.1-4.5,10.6-4.5c4.5,0,8,1.5,10.7,4.5c2.6,3,4,7,4,11.9v3.4V122.3z"/>
	</g>
	<g>
		<path class="st0" d="M115.6,76.8c7.2,0,13.9,1.4,20.2,4.1c6.3,2.7,11.8,6.5,16.5,11.2c4.7,4.7,8.4,10.2,11.2,16.5
			c2.7,6.3,4.1,13.1,4.1,20.4c0,7-1.4,13.7-4.1,19.9c-2.7,6.2-6.5,11.7-11.3,16.4c-4.8,4.7-10.3,8.4-16.6,11.2
			c-6.3,2.7-13.1,4.1-20.2,4.1c-7.2,0-13.9-1.3-20.3-4c-6.4-2.7-11.9-6.3-16.6-11c-4.7-4.6-8.5-10-11.3-16.2
			c-2.8-6.2-4.2-12.8-4.2-19.8c0-7.4,1.4-14.4,4.1-20.8c2.7-6.5,6.5-12,11.2-16.7c4.7-4.7,10.2-8.4,16.6-11.2
			C101.2,78.2,108.1,76.8,115.6,76.8z M115.6,104.8c-3.4,0-6.5,0.6-9.5,1.9c-2.9,1.3-5.5,3-7.7,5.2c-2.2,2.2-3.9,4.7-5.1,7.7
			c-1.2,2.9-1.8,6.2-1.8,9.7c0,3.1,0.6,6,1.9,8.8c1.3,2.8,3,5.3,5.2,7.4c2.2,2.1,4.7,3.8,7.6,4.9c2.9,1.2,5.9,1.8,9.2,1.8
			c3.2,0,6.3-0.6,9.2-1.9c2.9-1.3,5.4-2.9,7.6-5.1c2.2-2.1,3.9-4.6,5.2-7.5c1.3-2.9,1.9-5.9,1.9-9.2c0-3.4-0.6-6.5-1.9-9.4
			c-1.3-2.9-2.9-5.4-5.1-7.5c-2.1-2.1-4.6-3.8-7.5-5.1C121.9,105.5,118.8,104.8,115.6,104.8z"/>
		<path class="st0" d="M231.6,76.8c7.2,0,13.9,1.4,20.2,4.1c6.3,2.7,11.8,6.5,16.5,11.2c4.7,4.7,8.4,10.2,11.2,16.5
			c2.7,6.3,4.1,13.1,4.1,20.4c0,7-1.4,13.7-4.1,19.9c-2.7,6.2-6.5,11.7-11.3,16.4c-4.8,4.7-10.3,8.4-16.6,11.2
			c-6.3,2.7-13.1,4.1-20.2,4.1s-13.9-1.3-20.3-4c-6.4-2.7-11.9-6.3-16.6-11c-4.7-4.6-8.5-10-11.3-16.2c-2.8-6.2-4.2-12.8-4.2-19.8
			c0-7.4,1.4-14.4,4.1-20.8c2.7-6.5,6.5-12,11.2-16.7c4.7-4.7,10.2-8.4,16.6-11.2C217.3,78.2,224.2,76.8,231.6,76.8z M231.6,104.8
			c-3.4,0-6.5,0.6-9.5,1.9c-2.9,1.3-5.5,3-7.7,5.2c-2.2,2.2-3.9,4.7-5.1,7.7c-1.2,2.9-1.8,6.2-1.8,9.7c0,3.1,0.6,6,1.9,8.8
			c1.3,2.8,3,5.3,5.2,7.4c2.2,2.1,4.7,3.8,7.6,4.9c2.9,1.2,5.9,1.8,9.2,1.8c3.2,0,6.3-0.6,9.2-1.9c2.9-1.3,5.4-2.9,7.6-5.1
			c2.2-2.1,3.9-4.6,5.2-7.5c1.3-2.9,1.9-5.9,1.9-9.2c0-3.4-0.6-6.5-1.9-9.4c-1.3-2.9-2.9-5.4-5.1-7.5c-2.1-2.1-4.6-3.8-7.5-5.1
			C237.9,105.5,234.8,104.8,231.6,104.8z"/>
		<path class="st0" d="M329.9,200.5v3.2c-0.1,4.9-1.4,8.7-3.9,11.5c-2.5,2.7-5.8,4.1-10,4.1c-4.2,0-7.6-1.4-10.2-4.2
			c-2.6-2.8-3.9-6.6-3.9-11.4v-3.2V95.6c0-3.4,0.1-5.9,0.4-7.6c0.3-1.7,0.8-3.2,1.7-4.6c2.2-3.9,6-5.9,11.4-5.9
			c6.6,0,11,3.4,13.3,10.1c4.5-3.9,8.9-6.7,13.3-8.3c4.4-1.6,9.5-2.4,15.4-2.4c7,0,13.5,1.3,19.5,3.9c6,2.6,11.1,6.2,15.4,10.8
			c4.3,4.6,7.6,10.1,10.1,16.5c2.5,6.4,3.7,13.3,3.7,20.7c0,7.4-1.2,14.3-3.7,20.6c-2.5,6.3-5.8,11.8-10.1,16.4
			c-4.3,4.6-9.3,8.2-15.2,10.8c-5.8,2.6-12.2,3.9-19.1,3.9c-5.5,0-10.4-0.8-14.8-2.3c-4.4-1.5-8.8-4-13.2-7.5V200.5z M352.9,152.6
			c3.2,0,6.3-0.6,9.2-1.9c2.9-1.3,5.4-2.9,7.6-5.1c2.2-2.1,3.9-4.6,5.2-7.4c1.3-2.8,1.9-5.8,1.9-9.1c0-3.4-0.6-6.5-1.9-9.5
			c-1.3-2.9-2.9-5.5-5.1-7.6c-2.1-2.1-4.6-3.8-7.5-5.1c-2.9-1.3-6-1.9-9.4-1.9c-3.2,0-6.3,0.6-9.2,1.9c-2.9,1.3-5.4,2.9-7.5,5.1
			c-2.1,2.1-3.8,4.6-5.1,7.5c-1.3,2.9-1.9,6-1.9,9.4c0,3.2,0.6,6.3,1.9,9.2c1.3,2.9,2.9,5.4,5.1,7.5c2.1,2.1,4.6,3.8,7.5,5.1
			C346.6,152,349.7,152.6,352.9,152.6z"/>
		<path class="st0" d="M459.2,76.6c4.5,0,8.8,0.5,12.8,1.6c4.1,1.1,7.6,2.5,10.6,4.3c3,1.8,5.4,3.9,7.3,6.3c1.8,2.4,2.7,4.9,2.7,7.6
			c0,3.2-1.3,6.1-3.8,8.6c-2.5,2.5-5.5,3.8-8.8,3.8c-1.8,0-3.6-0.3-5.4-0.9c-1.8-0.6-4-1.7-6.6-3.3c-3.4-2-5.8-3.3-7.2-3.9
			c-1.4-0.6-2.9-0.9-4.4-0.9c-1.5,0-2.8,0.5-3.8,1.5c-1,1-1.5,2.1-1.5,3.4c0,2.4,1.2,4.3,3.6,5.7c2.4,1.4,6.8,2.9,13.3,4.6
			c4.8,1.3,8.4,2.4,11,3.3c2.5,0.9,4.9,1.9,7.2,3.1c4.4,2.4,7.7,5.7,10.1,10c2.4,4.3,3.6,9.1,3.6,14.4c0,5.2-1,9.9-2.9,14.2
			c-2,4.3-4.7,8-8.3,11.1c-3.6,3.1-7.9,5.5-12.8,7.2c-5,1.7-10.4,2.5-16.3,2.5c-5.5,0-10.7-0.8-15.8-2.3c-5.1-1.5-9.5-3.6-13.5-6.1
			c-3.9-2.5-7.1-5.4-9.4-8.7c-2.3-3.3-3.5-6.8-3.5-10.4c0-3.8,1.3-7.1,3.8-10c2.5-2.9,5.5-4.3,9.1-4.3c2.4,0,4.7,0.6,7.1,1.8
			c2.3,1.2,4.9,3,7.7,5.4c2.1,1.8,3.9,3.3,5.4,4.4c1.5,1.1,2.8,2,4,2.6c1.2,0.6,2.3,1.1,3.5,1.3c1.1,0.2,2.4,0.3,3.8,0.3
			c2.8,0,5.1-0.7,6.9-2.1c1.8-1.4,2.7-3.2,2.7-5.3c0-3.4-3.1-5.8-9.3-7.2c-3.9-1-8.2-2.2-12.8-3.8c-4.6-1.5-8.4-3-11.4-4.4
			c-4.6-2.4-8.4-5.8-11.2-10.3c-2.8-4.5-4.2-9.3-4.2-14.5c0-5.9,1.8-11.4,5.4-16.4c3.6-5.1,8.4-8.8,14.4-11.2
			C447,77.5,452.6,76.6,459.2,76.6z"/>
		<path class="st0" d="M536.5,180.6c-5.1,0-9.4-1.8-13-5.4c-3.6-3.6-5.4-7.9-5.4-13c0-5.1,1.8-9.3,5.4-12.8c3.6-3.5,7.9-5.3,13-5.3
			s9.3,1.8,12.8,5.3c3.5,3.5,5.3,7.8,5.3,12.8c0,5.1-1.8,9.4-5.3,13C545.9,178.9,541.6,180.6,536.5,180.6z M551.1,116.2v3.2
			c-0.1,5.1-1.5,9.1-4.1,12c-2.6,2.9-6.1,4.4-10.6,4.4c-4.5,0-8-1.5-10.7-4.5c-2.6-3-4-7-4-11.9v-3.2V55.8v-3.4
			c0.1-4.9,1.5-8.9,4.1-11.9c2.6-3,6.1-4.5,10.6-4.5c4.5,0,8,1.5,10.7,4.5c2.6,3,4,7,4,11.9v3.4V116.2z"/>
	</g>
</g>
</svg>
