<?xml version="1.0" encoding="utf-8"?>
<!-- Generator: Adobe Illustrator 23.0.2, SVG Export Plug-In . SVG Version: 6.00 Build 0)  -->
<svg version="1.1" xmlns="http://www.w3.org/2000/svg" xmlns:xlink="http://www.w3.org/1999/xlink" x="0px" y="0px" width="400px"
	 height="150px" viewBox="0 0 400 150" style="enable-background:new 0 0 400 150;" xml:space="preserve">
<style type="text/css">
	.st0{fill:#41E0C4;}
	.st1{fill:#FFFFFF;}
	.st2{fill:#B7F9EC;}
</style>
<g id="Layer_2">
	<path class="st0" d="M108.3,20h183.3c30.4,0,55,24.6,55,55v0c0,30.4-24.6,55-55,55H108.3c-30.4,0-55-24.6-55-55v0
		C53.3,44.6,78,20,108.3,20z"/>
</g>
<g id="Layer_1">
	<g>
		<path class="st1" d="M101.4,91.3V61.9v-1.1c0-3.8,1.9-5.6,5.6-5.6h1.1h7.2c0.8,0,1.8,0.1,2.8,0.2c1,0.1,2,0.3,3,0.5
			c3.8,0.9,6.8,3,8.9,6.5c0.8,1.3,1.3,2.6,1.8,4.1c0.4,1.4,0.6,2.9,0.6,4.3c0,1.4-0.2,2.8-0.6,4.2c-0.4,1.4-1,2.7-1.7,3.9
			c-0.8,1.2-1.7,2.3-2.7,3.3c-1.1,1-2.2,1.8-3.5,2.4c-1.1,0.5-2.3,0.9-3.4,1.1c-1.1,0.2-2.7,0.3-4.6,0.3H111v5.4v1.1
			c0,1.6-0.5,3-1.4,4c-0.9,1-2,1.5-3.5,1.5c-1.5,0-2.6-0.5-3.5-1.5c-0.9-1-1.3-2.3-1.3-3.9V91.3z M114.8,77.1c1.4,0,2.5-0.1,3.1-0.2
			c0.6-0.1,1.2-0.3,1.8-0.7c1-0.5,1.8-1.3,2.3-2.3c0.6-1,0.9-2,0.9-3.1c0-1.2-0.3-2.3-1-3.4c-0.7-1.1-1.5-1.9-2.6-2.4
			c-0.9-0.4-2.4-0.6-4.5-0.6H111v12.7H114.8z"/>
		<path class="st1" d="M140,55.1c1.4,0,2.6,0.5,3.5,1.5c1,1,1.5,2.2,1.5,3.5c0,1.4-0.5,2.6-1.5,3.6c-1,1-2.2,1.5-3.6,1.5
			c-0.7,0-1.3-0.1-1.9-0.4c-0.6-0.3-1.2-0.6-1.6-1.1c-0.5-0.4-0.8-1-1.1-1.6c-0.3-0.6-0.4-1.2-0.4-1.9c0-1.5,0.5-2.7,1.5-3.7
			C137.3,55.6,138.6,55.1,140,55.1z M135.9,92.2V72.6v-0.9c0-1.4,0.4-2.6,1.2-3.4c0.8-0.8,1.8-1.3,3-1.3c1.3,0,2.3,0.4,3.1,1.3
			c0.8,0.9,1.2,2,1.2,3.4v0.9v19.6v0.9c0,1.4-0.4,2.6-1.2,3.4c-0.8,0.8-1.8,1.3-3,1.3c-1.3,0-2.3-0.4-3.1-1.3
			c-0.8-0.9-1.2-2-1.2-3.4V92.2z"/>
		<path class="st1" d="M149.7,82.3c0-2.1,0.4-4.1,1.2-6c0.8-1.9,1.9-3.6,3.4-5c1.4-1.4,3.1-2.5,4.9-3.4c1.9-0.8,3.9-1.2,6-1.2
			c1.6,0,3.2,0.3,4.8,0.8c1.6,0.5,3,1.2,4.3,2.1c1.1,0.8,1.9,1.5,2.4,2.2c0.4,0.6,0.7,1.4,0.7,2.3c0,1.2-0.4,2.2-1.2,3
			c-0.8,0.8-1.8,1.2-3.1,1.2c-0.5,0-0.9-0.1-1.3-0.2c-0.3-0.1-0.8-0.4-1.4-0.9c-0.9-0.7-1.7-1.2-2.4-1.5c-0.7-0.3-1.5-0.4-2.4-0.4
			c-1,0-2,0.2-2.9,0.6c-0.9,0.4-1.7,0.9-2.3,1.6c-0.7,0.7-1.2,1.4-1.6,2.3c-0.4,0.9-0.6,1.8-0.6,2.8c0,1,0.2,2,0.6,2.8
			c0.4,0.9,0.9,1.6,1.6,2.3c0.7,0.6,1.4,1.1,2.3,1.5c0.9,0.4,1.8,0.6,2.8,0.6c1.3,0,2.4-0.3,3.2-0.8c0.1-0.1,0.4-0.3,0.7-0.5
			c0.4-0.3,0.8-0.6,1.4-1c0.5-0.3,0.9-0.6,1.3-0.7c0.4-0.1,0.8-0.2,1.3-0.2c1.2,0,2.2,0.4,3,1.2c0.8,0.8,1.2,1.8,1.2,3
			c0,0.9-0.4,1.8-1.1,2.7c-0.7,0.9-1.7,1.7-2.8,2.4c-1.2,0.7-2.5,1.3-3.9,1.7c-1.5,0.4-2.9,0.7-4.5,0.7c-2.2,0-4.2-0.4-6.1-1.2
			c-1.9-0.8-3.6-2-5-3.4c-1.4-1.4-2.5-3.1-3.4-5C150.1,86.5,149.7,84.5,149.7,82.3z"/>
		<path class="st1" d="M206.5,92.2c0,1.1-0.1,1.9-0.2,2.4c-0.1,0.5-0.4,1-0.8,1.6c-0.8,1.1-2,1.6-3.4,1.6c-0.9,0-1.6-0.2-2.3-0.6
			c-0.6-0.4-1.2-1.1-1.6-2c-1.2,1-2.4,1.7-3.5,2.1c-1.1,0.4-2.3,0.6-3.6,0.6c-1.5,0-2.8-0.3-4.1-0.8c-1.3-0.5-2.4-1.3-3.3-2.3
			c-0.9-1-1.7-2.1-2.2-3.4c-0.5-1.3-0.8-2.7-0.8-4.2c0-1.6,0.3-3,0.9-4.4c0.6-1.3,1.3-2.5,2.3-3.5c1-1,2.2-1.8,3.5-2.3
			c1.3-0.6,2.8-0.9,4.3-0.9c1.1,0,2.1,0.1,3.1,0.4c1,0.3,2.1,0.7,3.2,1.3c0-1.6-0.3-2.7-0.9-3.3c-0.6-0.6-1.5-0.9-2.9-0.9
			c-0.7,0-1.4,0.1-2.3,0.3l-2,0.6c-0.6,0.2-1.1,0.4-1.5,0.4c-0.4,0.1-0.8,0.1-1.1,0.1c-1,0-1.8-0.3-2.4-1c-0.6-0.6-0.9-1.4-0.9-2.4
			c0-1.7,0.9-3,2.8-4c1.9-1,4.3-1.5,7.3-1.5c2.1,0,4,0.3,5.7,0.9c1.7,0.6,3.1,1.4,4.2,2.5c0.9,1,1.6,2.2,2,3.6
			c0.4,1.4,0.6,3.3,0.6,5.5v12.4V92.2z M197.9,86.9c0-1.2-0.4-2.3-1.2-3.1c-0.8-0.8-1.8-1.3-3-1.3c-1.1,0-2.1,0.4-2.9,1.2
			c-0.8,0.8-1.2,1.8-1.2,3c0,1.2,0.4,2.2,1.2,3c0.8,0.8,1.8,1.2,3,1.2c1.2,0,2.2-0.4,2.9-1.2C197.5,89,197.9,88.1,197.9,86.9z"/>
		<path class="st1" d="M283,66.8c2.2,0,4.2,0.4,6.1,1.2c1.9,0.8,3.6,1.9,5,3.4c1.4,1.4,2.5,3.1,3.4,5c0.8,1.9,1.2,3.9,1.2,6.1
			c0,2.1-0.4,4.1-1.2,6c-0.8,1.9-2,3.5-3.4,4.9c-1.4,1.4-3.1,2.5-5,3.4c-1.9,0.8-3.9,1.2-6.1,1.2c-2.2,0-4.2-0.4-6.1-1.2
			c-1.9-0.8-3.6-1.9-5-3.3c-1.4-1.4-2.5-3-3.4-4.9c-0.8-1.9-1.3-3.8-1.3-5.9c0-2.2,0.4-4.3,1.2-6.3c0.8-1.9,1.9-3.6,3.4-5
			c1.4-1.4,3.1-2.5,5-3.4C278.7,67.2,280.8,66.8,283,66.8z M283,75.2c-1,0-2,0.2-2.8,0.6c-0.9,0.4-1.7,0.9-2.3,1.6
			c-0.7,0.7-1.2,1.4-1.5,2.3c-0.4,0.9-0.5,1.9-0.5,2.9c0,0.9,0.2,1.8,0.6,2.7c0.4,0.8,0.9,1.6,1.6,2.2c0.7,0.6,1.4,1.1,2.3,1.5
			c0.9,0.4,1.8,0.5,2.8,0.5c1,0,1.9-0.2,2.8-0.6c0.9-0.4,1.6-0.9,2.3-1.5c0.7-0.6,1.2-1.4,1.6-2.2c0.4-0.9,0.6-1.8,0.6-2.8
			c0-1-0.2-2-0.6-2.8c-0.4-0.9-0.9-1.6-1.5-2.2c-0.6-0.6-1.4-1.1-2.2-1.5C284.9,75.4,284,75.2,283,75.2z"/>
		<path class="st1" d="M230.5,67.4h-15.3c-1.3,0-2.3,0.3-3.1,1.1c-0.8,0.7-1.2,1.6-1.2,2.8c0,1.2,0.4,2.1,1.2,2.8
			c0.8,0.7,1.8,1.1,3.2,1.1h9.3L230.5,67.4z"/>
		<path class="st1" d="M261.8,89.9h-8.8l3.8-5l7.9-10.3c0.7-1,1.1-1.9,1.1-2.7c0-1.4-0.5-2.5-1.4-3.3c-0.9-0.7-2-1.1-3.3-1.2l0,0
			h-0.5h-1.1h-13.7c-1.3,0-2.3,0.3-3.1,1.1c-0.8,0.7-1.2,1.6-1.2,2.8c0,1.2,0.4,2.1,1.2,2.8c0.8,0.7,1.8,1.1,3.2,1.1h7.8l-3,4l0,0
			l-8,10.4c-0.4,0.5-0.7,1-1,1.3c-0.3,0.4-0.4,0.7-0.6,0.9c-0.1,0.3-0.2,0.5-0.3,0.7c0,0.2-0.1,0.5-0.1,0.8c0,0.7,0.2,1.5,0.7,2.2
			c0.4,0.7,1,1.3,1.7,1.6c0.4,0.2,0.8,0.3,1.2,0.4c0.3,0.1,0.8,0.1,1.3,0.1l0,0h0.2h1.4h14.7c1.3,0,2.3-0.4,3.1-1.1
			c0.8-0.7,1.2-1.7,1.2-2.8s-0.4-2.1-1.2-2.8C264.2,90.3,263.1,89.9,261.8,89.9z"/>
		<path class="st1" d="M231.3,89.8h-9.7l-6,7.8h15.7c1.3,0,2.3-0.4,3.1-1.1c0.8-0.7,1.2-1.7,1.2-2.8s-0.4-2.1-1.2-2.8
			C233.6,90.3,232.6,89.9,231.3,89.8z"/>
		<path class="st2" d="M244.7,56.5l-25.5,39.3c-1.4,2.2-4.4,2.8-6.6,1.4c-2.2-1.4-2.8-4.4-1.4-6.6c0.1-0.1,0.2-0.3,0.3-0.4L241,53.8
			c0.8-1,2.3-1.1,3.3-0.3C245.2,54.2,245.4,55.5,244.7,56.5z"/>
		<path class="st2" d="M221,51.5l-5,10c-0.9,1.7-3,2.5-4.8,1.6c-1.7-0.9-2.5-3-1.6-4.8c0.2-0.3,0.4-0.7,0.7-0.9l7.9-7.9
			c0.7-0.7,1.8-0.7,2.4,0C221.2,50.1,221.3,50.9,221,51.5z"/>
		<path class="st2" d="M261.8,54.4l-3.1,5.7c-0.6,1.1-2,1.5-3.1,0.9c-1.1-0.6-1.5-2-0.9-3.1c0.1-0.2,0.3-0.5,0.5-0.6l4.9-4.3
			c0.5-0.4,1.1-0.4,1.5,0.1C262,53.5,262,54,261.8,54.4z"/>
	</g>
</g>
</svg>
