<?xml version="1.0" encoding="utf-8"?>
<!-- Generator: Adobe Illustrator 23.0.2, SVG Export Plug-In . SVG Version: 6.00 Build 0)  -->
<svg version="1.1" xmlns="http://www.w3.org/2000/svg" xmlns:xlink="http://www.w3.org/1999/xlink" x="0px" y="0px" width="400px"
	 height="150px" viewBox="0 0 400 150" style="enable-background:new 0 0 400 150;" xml:space="preserve">
<style type="text/css">
	.st0{fill:url(#SVGID_1_);}
	.st1{fill:#FFFFFF;}
	.st2{fill:#B7F9EC;}
</style>
<g id="Layer_2">
	<linearGradient id="SVGID_1_" gradientUnits="userSpaceOnUse" x1="334.4335" y1="155.1512" x2="96.0659" y2="13.033">
		<stop  offset="0" style="stop-color:#41E0C4"/>
		<stop  offset="1" style="stop-color:#81C9A9"/>
	</linearGradient>
	<path class="st0" d="M75,0h250c41.4,0,75,33.6,75,75v0c0,41.4-33.6,75-75,75H75c-41.4,0-75-33.6-75-75v0C0,33.6,33.6,0,75,0z"/>
</g>
<g id="Layer_1">
	<g>
		<path class="st1" d="M65.5,99.2v-40v-1.6c0-5.1,2.5-7.7,7.6-7.7h1.6h9.8c1.2,0,2.4,0.1,3.8,0.3c1.4,0.2,2.8,0.4,4.1,0.7
			c5.2,1.2,9.2,4.1,12.1,8.8c1,1.7,1.8,3.6,2.4,5.5c0.6,2,0.9,3.9,0.9,5.9c0,2-0.3,3.9-0.8,5.7c-0.5,1.9-1.3,3.6-2.4,5.3
			c-1,1.6-2.3,3.1-3.7,4.4c-1.4,1.3-3.1,2.4-4.8,3.3c-1.6,0.7-3.1,1.3-4.7,1.6c-1.6,0.3-3.6,0.4-6.2,0.4h-6.4v7.3v1.5
			c-0.1,2.2-0.7,4-1.9,5.4c-1.2,1.4-2.8,2-4.8,2c-2,0-3.6-0.7-4.8-2.1c-1.2-1.4-1.8-3.2-1.8-5.4V99.2z M83.9,79.8
			c2,0,3.4-0.1,4.2-0.2c0.8-0.1,1.7-0.4,2.5-0.9c1.3-0.7,2.4-1.8,3.2-3.2c0.8-1.4,1.2-2.8,1.2-4.3c0-1.6-0.5-3.2-1.4-4.6
			c-0.9-1.5-2.1-2.5-3.5-3.2c-1.3-0.6-3.3-0.9-6.1-0.9h-5.2v17.3H83.9z"/>
		<path class="st1" d="M118.2,49.9c1.9,0,3.5,0.7,4.8,2c1.3,1.3,2,2.9,2,4.8c0,1.9-0.7,3.5-2,4.9c-1.4,1.4-3,2-5,2
			c-0.9,0-1.8-0.2-2.6-0.6c-0.8-0.4-1.6-0.9-2.2-1.5c-0.6-0.6-1.1-1.3-1.5-2.1c-0.4-0.8-0.6-1.7-0.6-2.6c0-2,0.7-3.7,2-5
			C114.5,50.5,116.2,49.9,118.2,49.9z M112.5,100.5V73.8v-1.3c0.1-2,0.6-3.5,1.6-4.7c1-1.2,2.4-1.7,4.1-1.7c1.7,0,3.1,0.6,4.2,1.8
			c1.1,1.2,1.6,2.7,1.6,4.6v1.3v26.7v1.3c-0.1,2-0.6,3.5-1.6,4.7c-1,1.2-2.4,1.7-4.1,1.7c-1.7,0-3.1-0.6-4.2-1.8
			c-1.1-1.2-1.6-2.7-1.6-4.6V100.5z"/>
		<path class="st1" d="M131.4,87c0-2.9,0.6-5.6,1.7-8.2c1.1-2.6,2.6-4.8,4.6-6.8c1.9-1.9,4.2-3.5,6.7-4.6c2.6-1.1,5.3-1.7,8.2-1.7
			c2.2,0,4.4,0.3,6.5,1c2.2,0.7,4.1,1.6,5.9,2.8c1.6,1.1,2.6,2.1,3.2,3c0.6,0.9,0.9,1.9,0.9,3.1c0,1.6-0.6,3-1.7,4
			c-1.1,1.1-2.5,1.6-4.2,1.6c-0.7,0-1.3-0.1-1.7-0.3c-0.5-0.2-1.1-0.6-1.9-1.2c-1.3-1-2.4-1.7-3.3-2.1c-0.9-0.4-2-0.6-3.2-0.6
			c-1.4,0-2.7,0.3-3.9,0.8c-1.2,0.5-2.3,1.2-3.2,2.1c-0.9,0.9-1.6,1.9-2.1,3.1c-0.5,1.2-0.8,2.5-0.8,3.8c0,1.4,0.3,2.7,0.8,3.9
			c0.5,1.2,1.2,2.2,2.1,3.1c0.9,0.9,1.9,1.6,3.1,2.1c1.2,0.5,2.5,0.8,3.8,0.8c1.8,0,3.2-0.4,4.4-1.1c0.2-0.1,0.5-0.3,1-0.7
			c0.5-0.3,1.1-0.8,1.9-1.4c0.6-0.5,1.2-0.8,1.8-1c0.5-0.2,1.1-0.3,1.8-0.3c1.6,0,3,0.6,4.1,1.7c1.1,1.1,1.7,2.5,1.7,4.1
			c0,1.3-0.5,2.5-1.5,3.7c-1,1.2-2.3,2.3-3.8,3.3c-1.6,1-3.4,1.8-5.4,2.4c-2,0.6-4,0.9-6.1,0.9c-2.9,0-5.7-0.6-8.3-1.7
			c-2.6-1.1-4.9-2.7-6.8-4.6c-1.9-2-3.5-4.2-4.6-6.8C131.9,92.7,131.4,89.9,131.4,87z"/>
		<path class="st1" d="M208.9,100.5c0,1.5-0.1,2.6-0.3,3.3c-0.2,0.7-0.5,1.4-1,2.1c-1.2,1.5-2.7,2.2-4.7,2.2c-1.2,0-2.2-0.3-3.1-0.8
			s-1.6-1.5-2.2-2.7c-1.7,1.3-3.3,2.3-4.8,2.8c-1.6,0.6-3.2,0.9-4.9,0.9c-2,0-3.9-0.4-5.6-1.1c-1.7-0.7-3.2-1.8-4.5-3.2
			c-1.3-1.4-2.3-2.9-3-4.7c-0.7-1.8-1.1-3.7-1.1-5.8c0-2.1,0.4-4.1,1.2-6c0.8-1.8,1.8-3.4,3.2-4.8c1.4-1.4,2.9-2.4,4.7-3.2
			c1.8-0.8,3.8-1.2,5.9-1.2c1.4,0,2.8,0.2,4.2,0.6c1.4,0.4,2.8,1,4.4,1.8c0-2.1-0.4-3.6-1.2-4.5c-0.8-0.9-2.1-1.3-3.9-1.3
			c-0.9,0-2,0.2-3.1,0.5l-2.8,0.8c-0.8,0.3-1.5,0.5-2,0.6c-0.5,0.1-1.1,0.1-1.5,0.1c-1.3,0-2.4-0.4-3.2-1.3c-0.8-0.9-1.3-2-1.3-3.3
			c0-2.3,1.3-4.1,3.8-5.4c2.5-1.4,5.8-2,9.9-2c2.8,0,5.4,0.4,7.7,1.2c2.3,0.8,4.2,1.9,5.7,3.4c1.3,1.3,2.2,2.9,2.7,4.9
			c0.5,1.9,0.8,4.4,0.8,7.6v16.9V100.5z M197.1,93.2c0-1.7-0.5-3.1-1.6-4.2c-1.1-1.2-2.4-1.7-4.1-1.7c-1.6,0-2.9,0.6-4,1.7
			c-1.1,1.1-1.6,2.5-1.6,4.1c0,1.7,0.5,3.1,1.6,4.1c1.1,1.1,2.5,1.6,4.1,1.6c1.6,0,2.9-0.5,4-1.6C196.6,96.2,197.1,94.8,197.1,93.2z
			"/>
		<path class="st1" d="M313.2,65.8c2.9,0,5.7,0.6,8.3,1.7c2.6,1.1,4.8,2.6,6.8,4.6c1.9,1.9,3.5,4.2,4.6,6.8c1.1,2.6,1.7,5.4,1.7,8.4
			c0,2.9-0.6,5.6-1.7,8.2c-1.1,2.6-2.7,4.8-4.6,6.7c-2,1.9-4.2,3.5-6.8,4.6c-2.6,1.1-5.4,1.7-8.3,1.7c-2.9,0-5.7-0.5-8.3-1.6
			c-2.6-1.1-4.9-2.6-6.8-4.5c-1.9-1.9-3.5-4.1-4.6-6.6c-1.2-2.5-1.7-5.2-1.7-8.1c0-3,0.6-5.9,1.7-8.5c1.1-2.6,2.6-4.9,4.6-6.9
			c1.9-1.9,4.2-3.5,6.8-4.6C307.3,66.4,310.1,65.8,313.2,65.8z M313.2,77.3c-1.4,0-2.7,0.3-3.9,0.8c-1.2,0.5-2.3,1.2-3.2,2.1
			c-0.9,0.9-1.6,1.9-2.1,3.2c-0.5,1.2-0.7,2.5-0.7,4c0,1.3,0.3,2.5,0.8,3.6c0.5,1.2,1.2,2.2,2.1,3c0.9,0.9,1.9,1.5,3.1,2
			c1.2,0.5,2.4,0.7,3.8,0.7c1.3,0,2.6-0.3,3.8-0.8c1.2-0.5,2.2-1.2,3.1-2.1c0.9-0.9,1.6-1.9,2.1-3.1c0.5-1.2,0.8-2.4,0.8-3.8
			c0-1.4-0.3-2.7-0.8-3.8c-0.5-1.2-1.2-2.2-2.1-3.1c-0.9-0.9-1.9-1.6-3.1-2.1C315.8,77.6,314.5,77.3,313.2,77.3z"/>
		<path class="st1" d="M241.6,66.6h-20.9c-1.7,0-3.2,0.5-4.3,1.4c-1.1,1-1.7,2.2-1.7,3.9c0,1.6,0.5,2.8,1.6,3.8
			c1.1,1,2.5,1.5,4.3,1.5h12.7L241.6,66.6z"/>
		<path class="st1" d="M284.3,97.3h-11.9l5.2-6.8l10.7-14c1-1.3,1.5-2.6,1.5-3.7c0-1.9-0.7-3.3-2-4.4c-1.2-1-2.7-1.5-4.5-1.6l0,0
			h-0.7h-1.5h-18.7c-1.7,0-3.2,0.5-4.3,1.4c-1.1,1-1.7,2.2-1.7,3.9c0,1.6,0.5,2.8,1.6,3.8c1.1,1,2.5,1.5,4.3,1.5H273l-4.2,5.4l0,0
			L258,96.8c-0.5,0.7-1,1.3-1.3,1.8c-0.3,0.5-0.6,0.9-0.8,1.3c-0.2,0.4-0.3,0.7-0.4,1c-0.1,0.3-0.1,0.7-0.1,1.1c0,1,0.3,2,0.9,3
			c0.6,1,1.4,1.8,2.3,2.2c0.6,0.3,1.1,0.5,1.7,0.6c0.5,0.1,1,0.1,1.7,0.1l0,0h0.3h1.9h20.1c1.7,0,3.2-0.5,4.2-1.5
			c1.1-1,1.6-2.3,1.6-3.8s-0.5-2.8-1.6-3.8C287.5,97.8,286.1,97.3,284.3,97.3z"/>
		<path class="st1" d="M242.7,97.2h-13.3l-8.1,10.6h21.4c1.7,0,3.1-0.5,4.2-1.5c1.1-1,1.6-2.3,1.6-3.8c0-1.6-0.5-2.8-1.6-3.8
			C245.9,97.8,244.5,97.3,242.7,97.2z"/>
		<path class="st2" d="M261,51.8l-34.8,53.5c-2,3-6,3.9-9,1.9c-3-2-3.9-6-1.9-9c0.1-0.2,0.3-0.4,0.4-0.6l40.2-49.6
			c1.1-1.4,3.1-1.6,4.4-0.5C261.6,48.6,261.9,50.4,261,51.8z"/>
		<path class="st2" d="M228.7,45l-6.9,13.6c-1.2,2.4-4.1,3.3-6.5,2.1c-2.4-1.2-3.3-4.1-2.1-6.5c0.2-0.5,0.6-0.9,0.9-1.3l10.8-10.7
			c0.9-0.9,2.4-0.9,3.3,0C229,43,229.1,44.1,228.7,45z"/>
		<path class="st2" d="M284.3,48.9l-4.2,7.8c-0.8,1.5-2.7,2.1-4.2,1.3c-1.5-0.8-2.1-2.7-1.3-4.2c0.2-0.3,0.4-0.6,0.7-0.9l6.6-5.9
			c0.6-0.5,1.6-0.5,2.1,0.1C284.5,47.7,284.6,48.4,284.3,48.9z"/>
	</g>
</g>
</svg>
