<?xml version="1.0" encoding="utf-8"?>
<!-- Generator: Adobe Illustrator 19.2.1, SVG Export Plug-In . SVG Version: 6.00 Build 0)  -->
<!DOCTYPE svg PUBLIC "-//W3C//DTD SVG 1.1//EN" "http://www.w3.org/Graphics/SVG/1.1/DTD/svg11.dtd">
<svg version="1.1" id="Layer_3" xmlns="http://www.w3.org/2000/svg" xmlns:xlink="http://www.w3.org/1999/xlink" x="0px" y="0px"
	 width="960px" height="356.9px" viewBox="0 0 960 356.9" style="enable-background:new 0 0 960 356.9;" xml:space="preserve">
<style type="text/css">
	.st0{fill:#1A1A1A;}
	.st1{fill:#F2F2F2;}
	.st2{fill:#E4FFF9;stroke:#CBECE5;stroke-miterlimit:10;}
	.st3{fill:#F2F2F2;stroke:#E6E6E6;stroke-miterlimit:10;}
	.st4{fill:#4D4D4F;}
	.st5{fill:#B3B3B3;}
	.st6{font-family:'Roboto-Regular';}
	.st7{font-size:12px;}
	.st8{fill:#AACEC4;}
</style>
<rect class="st0" width="960" height="36"/>
<rect y="196.7" class="st1" width="960" height="160.2"/>
<g>
	<rect y="36" class="st2" width="960" height="160.2"/>
	<rect x="52.6" y="65.6" class="st2" width="854.9" height="101"/>
</g>
<rect x="52.5" y="226.3" class="st3" width="854.9" height="101"/>
<g>
	<rect x="867.1" y="14.4" class="st4" width="40.3" height="7.2"/>
	<rect x="786.4" y="14.4" class="st4" width="40.3" height="7.2"/>
	<rect x="705.8" y="14.4" class="st4" width="40.3" height="7.2"/>
	<rect x="625.1" y="14.4" class="st4" width="40.3" height="7.2"/>
</g>
<text transform="matrix(1 0 0 1 452.9501 276.7648)" class="st5 st6 st7">.container</text>
<text transform="matrix(1 0 0 1 452.9501 116.088)" class="st8 st6 st7">.container</text>
<text transform="matrix(1 0 0 1 458.622 345.5947)" class="st5 st6 st7">.section</text>
<g>
	<text transform="matrix(1 0 0 1 458.622 185.5947)" class="st8 st6 st7">.section</text>
</g>
</svg>
