<?xml version="1.0" encoding="utf-8"?>
<!-- Generator: Adobe Illustrator 22.1.0, SVG Export Plug-In . SVG Version: 6.00 Build 0)  -->
<svg version="1.1" id="Layer_1" xmlns="http://www.w3.org/2000/svg" xmlns:xlink="http://www.w3.org/1999/xlink" x="0px" y="0px"
	 viewBox="0 0 525 500" style="enable-background:new 0 0 525 500;" xml:space="preserve">
<style type="text/css">
	.st0{fill:#4D4D4D;}
	.st1{fill:#8CF2DE;}
	.st2{opacity:0.1;}
	.st3{fill:#F2F2F2;}
	.st4{fill:#F7DFE9;}
	.st5{opacity:0.47;}
	.st6{fill:#FFFFFF;}
	.st7{fill:#E6E6E6;}
	.st8{fill:#CCCCCC;}
	.st9{fill:#69BFF4;}
</style>
<g>
	<g>
		<path class="st0" d="M398.92,277.292c-4.89,0-9.611-2.663-12.014-7.307c-3.43-6.629-0.837-14.784,5.793-18.213
			c23.275-12.043,28.153-52.364,28.196-52.767c0.785-7.423,7.437-12.803,14.861-12.02c7.423,0.785,12.803,7.438,12.018,14.861
			c-0.236,2.24-6.219,55.08-42.654,73.932C403.134,276.805,401.012,277.292,398.92,277.292z"/>
	</g>
	<g>
		<path class="st0" d="M442.809,206.077h-13.515c-7.825,0-14.191-6.366-14.191-14.191s6.365-14.191,14.191-14.191h13.515
			c7.825,0,14.191,6.366,14.191,14.191S450.634,206.077,442.809,206.077z M429.294,184.453c-4.098,0-7.433,3.335-7.433,7.433
			s3.335,7.433,7.433,7.433h13.515c4.098,0,7.433-3.335,7.433-7.433s-3.335-7.433-7.433-7.433H429.294z"/>
	</g>
	<g>
		<path class="st0" d="M101.93,341.248c-0.484,0-0.971-0.026-1.464-0.079c-7.409-0.8-12.774-7.432-11.99-14.843
			c0.237-2.24,6.22-55.079,42.655-73.931c6.631-3.43,14.785-0.837,18.214,5.792c3.43,6.629,0.837,14.784-5.792,18.214
			c-19.472,10.075-26.959,41.528-28.2,52.797C114.591,336.114,108.734,341.248,101.93,341.248z"/>
	</g>
	<g>
		<path class="st1" d="M400.237,288.338c0,73.148-59.298,132.446-132.446,132.446s-132.446-59.298-132.446-132.446
			c0-94.046,106.051-175.072,128.359-201.387c2.141-2.526,6.033-2.526,8.174,0C294.186,113.266,400.237,199.698,400.237,288.338z"/>
	</g>
	<path class="st0" d="M295.347,101.502c-8.126-8.086-14.544-14.473-18.314-18.92c-2.307-2.721-5.675-4.282-9.242-4.282
		c-3.566,0-6.935,1.561-9.242,4.282c-3.892,4.591-10.654,11.112-19.215,19.369c-38.704,37.326-110.746,106.803-110.746,186.388
		c0,76.757,62.446,139.203,139.203,139.203s139.203-62.446,139.203-139.203C406.994,212.603,334.366,140.33,295.347,101.502z
		 M267.791,420.784c-73.148,0-132.446-59.298-132.446-132.446c0-94.046,106.051-175.072,128.359-201.387
		c1.071-1.263,2.579-1.895,4.087-1.895c1.508,0,3.017,0.632,4.087,1.895c22.308,26.315,128.359,112.747,128.359,201.387
		C400.237,361.486,340.939,420.784,267.791,420.784z"/>
	<g class="st2">
		<path d="M398.939,306.817c-8.974,64.398-64.277,113.971-131.148,113.971c-39.747,0-75.413-17.515-99.686-45.261
			c24.786,16.164,54.384,25.543,86.171,25.543C318.877,401.07,374.424,362.336,398.939,306.817z"/>
	</g>
	<path class="st3" d="M450.242,191.887c0,4.095-3.338,7.433-7.433,7.433h-13.515c-4.095,0-7.433-3.338-7.433-7.433
		c0-4.095,3.338-7.433,7.433-7.433h13.515C446.904,184.453,450.242,187.792,450.242,191.887z"/>
	<g>
		<path class="st0" d="M336.686,240.765c-5.445-5.444-12.681-8.44-20.38-8.44c-0.001,0-0.003,0-0.005,0
			c-7.699,0.001-14.937,3.001-20.38,8.445c-2.111,2.112-2.11,5.535,0.001,7.645c1.056,1.056,2.439,1.583,3.822,1.583
			c1.384,0,2.768-0.528,3.823-1.584c3.402-3.402,7.925-5.277,12.736-5.277c0.001,0,0.002,0,0.003,0c4.81,0,9.334,1.873,12.736,5.274
			c2.112,2.112,5.535,2.11,7.645-0.001C338.798,246.298,338.797,242.876,336.686,240.765z"/>
		<path class="st0" d="M219.28,232.324c-7.699,0-14.937,2.999-20.381,8.443c-2.111,2.111-2.111,5.534,0.001,7.645
			c2.11,2.11,5.533,2.111,7.645-0.001c3.401-3.402,7.924-5.275,12.735-5.275s9.334,1.873,12.735,5.275
			c1.056,1.056,2.439,1.584,3.823,1.584c1.383,0,2.767-0.528,3.822-1.583c2.112-2.111,2.112-5.534,0.001-7.645
			C234.217,235.323,226.979,232.324,219.28,232.324z"/>
	</g>
	<path class="st0" d="M313.357,287.094c-2.223-2.531-5.428-3.982-8.795-3.982h-72.33c-3.811,0-7.408,1.67-9.87,4.581
		c-2.434,2.878-3.472,6.65-2.849,10.349c3.973,23.579,24.237,40.692,48.183,40.692c24.465,0,45.295-18.269,48.452-42.494
		C316.579,292.939,315.562,289.605,313.357,287.094z"/>
	<path class="st4" d="M300.29,316.535c-7.725,9.424-19.453,15.442-32.591,15.442c-13.099,0-24.805-5.979-32.522-15.358
		c8.222-6.109,19.798-9.907,32.614-9.907C280.553,306.712,292.075,310.479,300.29,316.535z"/>
	<g class="st5">
		<path class="st6" d="M180.862,221.012c1.769-6.347,4.55-12.314,7.636-18.131c0.771-1.458,1.593-2.884,2.448-4.292
			c0.836-1.423,1.682-2.843,2.598-4.214c1.792-2.777,3.754-5.431,5.711-8.106c4.067-5.177,7.738-10.953,13.195-14.85
			c5.276-4.047,11.168-7.359,17.887-9.12c0.271-0.071,0.548,0.091,0.619,0.362c0.035,0.133,0.014,0.267-0.049,0.378l-0.015,0.026
			c-1.744,3.066-3.805,5.593-5.827,8.12c-1.977,2.576-4.175,4.838-6.24,7.224c-1.059,1.163-2.158,2.278-3.314,3.333
			c-1.105,1.106-2.282,2.138-3.476,3.161l-1.832,1.5l-1.761,1.574c-1.172,1.055-2.337,2.123-3.456,3.235
			c-2.176,2.277-4.378,4.549-6.425,6.958c-1.083,1.16-2.099,2.373-3.111,3.594c-1.032,1.208-2.036,2.438-2.993,3.705
			c-3.932,4.989-7.621,10.257-10.708,15.87l-0.016,0.029c-0.126,0.229-0.414,0.313-0.644,0.187
			C180.893,221.446,180.804,221.219,180.862,221.012z"/>
	</g>
	<g>
		<path class="st0" d="M104.892,348.987c-0.707,0-1.419-0.053-2.131-0.159l0,0l-13.366-2.001c-3.749-0.562-7.054-2.55-9.308-5.597
			c-2.254-3.047-3.186-6.79-2.624-10.539c0.561-3.748,2.549-7.054,5.596-9.308c3.048-2.254,6.794-3.183,10.539-2.624l13.366,2.001
			c3.749,0.562,7.054,2.55,9.308,5.597c2.254,3.047,3.186,6.79,2.624,10.539c-0.561,3.748-2.549,7.054-5.596,9.308
			C110.831,348.029,107.906,348.987,104.892,348.987z M103.761,342.145c1.966,0.292,3.924-0.194,5.521-1.375
			s2.638-2.912,2.931-4.875c0.608-4.053-2.196-7.845-6.25-8.453l-13.365-2.001c-1.969-0.298-3.925,0.194-5.521,1.375
			c-1.596,1.181-2.638,2.912-2.931,4.875c-0.608,4.053,2.196,7.845,6.25,8.453L103.761,342.145z"/>
	</g>
	<g>
		<path class="st0" d="M494.098,182.994c-0.189-0.879-0.703-1.649-1.46-2.149l-26.354-17.407
			c4.122-13.704-0.649-22.178-5.676-26.976c-11.069-10.596-31.571-11.298-40.815-7.122c-0.743,0.338-1.73,0.838-2.838,1.514
			l-18.826-12.434l12.447-18.853l0.351,0.23c1.122,0.743,2.406,1.122,3.73,1.122c0.446,0,0.906-0.041,1.352-0.135
			c1.757-0.365,3.298-1.406,4.284-2.892l6.42-9.731c0.987-1.5,1.338-3.325,0.987-5.082c-0.365-1.757-1.406-3.298-2.892-4.284
			l-25.949-17.123c-1.135-0.757-2.433-1.122-3.717-1.122c-2.189,0-4.338,1.068-5.636,3.027l-6.433,9.731
			c-0.987,1.5-1.338,3.325-0.973,5.082c0.351,1.757,1.392,3.298,2.892,4.284l0.527,0.351l-23.043,34.882
			c-30.895,46.775-14.799,67.034-12.866,69.183c1.311,1.46,3.149,2.243,5.028,2.243c0.73,0,1.446-0.108,2.162-0.351
			c2.554-0.865,4.352-3.162,4.568-5.852c1.825-22.137,13.799-36.774,20.299-43.193l22.367,14.785
			c-0.027,3.622,0.487,7.73,1.716,12.353c3.446,12.92,16.677,19.015,27.908,20.407c1.919,0.23,3.771,0.351,5.555,0.351
			c4.5,0,8.528-0.73,11.771-2.108l26.759,17.677c0.581,0.378,1.216,0.554,1.865,0.554c1.095,0,2.162-0.527,2.825-1.514
			l11.163-16.907C494.098,184.778,494.273,183.872,494.098,182.994z M388.722,77.037l6.42-9.731l25.935,17.123l-6.42,9.731
			l-0.351-0.23l-5.649-3.73l-13.772-9.096l-5.636-3.717v-0.014L388.722,77.037z M379.478,132.718
			c-6.244,5.474-22.57,22.273-24.84,49.856c0,0-15.434-17.177,13.474-60.939l23.043-34.895l13.785,9.095l-13.028,19.732
			l-10.015,15.164C381.897,130.732,380.978,131.394,379.478,132.718z M386.884,135.286c0.243-0.257,0.46-0.541,0.649-0.824
			l6.866-10.393l17.029,11.244c-2.69,2.798-5.203,6.676-6.487,11.907L386.884,135.286z M443.431,180.737
			c-2.595,0.378-5.636,0.432-8.933,0.027c-9.055-1.122-19.637-5.757-22.205-15.42c-0.568-2.122-0.96-4.108-1.189-5.947
			c-0.392-3.068-0.378-5.757-0.04-8.136c0.784-5.771,3.379-9.636,6.095-12.163c1.946-1.798,3.946-2.933,5.419-3.595
			c0.27-0.122,0.568-0.243,0.865-0.351c7.852-2.933,24.205-1.757,32.503,6.19c4.717,4.514,6.19,10.609,4.392,18.164l-3.771-2.487
			c1.433-0.743,2.135-2.46,1.608-4.041c-0.595-1.77-2.5-2.73-4.271-2.135c-1.5,0.5-2.608,1.243-3.419,2.162
			c-1.581,1.798-2,4.257-1.838,6.879c0.176,3.014,1.108,6.23,1.879,8.866c0.757,2.581,2,6.893,1.487,7.987
			c-0.189,0.351-0.473,0.689-0.824,1.027C449.742,179.115,447.012,180.237,443.431,180.737z M478.65,195.9l-21.773-14.38
			c0.405-0.473,0.743-0.987,1.041-1.514c1.919-3.433,0.554-8.149-0.905-13.136c-0.162-0.568-0.338-1.176-0.514-1.798l1.865,1.23
			l4.595,3.041l23.138,15.285L478.65,195.9z"/>
		<path class="st7" d="M392.087,115.568l-10.014,15.164c0,0-0.919,0.662-2.419,1.987c-6.244,5.474-22.57,22.273-24.84,49.856
			c0,0-15.434-17.177,13.474-60.939l23.043-34.895l13.785,9.095L392.087,115.568z"/>
		<path class="st8" d="M411.603,135.313c-2.689,2.798-5.203,6.676-6.487,11.907l-18.056-11.934c0.243-0.257,0.46-0.541,0.649-0.824
			l6.866-10.393L411.603,135.313z"/>
		<polygon class="st7" points="389.425,77.375 388.898,77.037 395.317,67.306 421.253,84.43 414.833,94.16 414.482,93.931 
			408.832,90.201 395.061,81.105 389.425,77.388 		"/>
		<path class="st3" d="M454.08,150.842c-1.5,0.5-2.608,1.243-3.419,2.162c-1.581,1.798-2,4.257-1.838,6.879
			c0.176,3.014,1.108,6.23,1.879,8.866c0.757,2.581,2,6.893,1.487,7.987c-0.189,0.351-0.473,0.689-0.824,1.027
			c-1.446,1.351-4.176,2.473-7.758,2.973c-2.595,0.378-5.636,0.432-8.933,0.027c-9.055-1.122-19.637-5.757-22.205-15.42
			c-0.568-2.122-0.96-4.108-1.189-5.947c-0.392-3.068-0.378-5.757-0.04-8.136c0.784-5.771,3.379-9.636,6.095-12.163
			c1.946-1.798,3.946-2.933,5.419-3.595c0.27-0.122,0.568-0.243,0.865-0.351c7.852-2.933,24.205-1.757,32.503,6.19
			c4.717,4.514,6.19,10.609,4.392,18.164l-3.771-2.487c1.433-0.743,2.135-2.46,1.608-4.041
			C457.756,151.207,455.851,150.247,454.08,150.842z"/>
		<path class="st9" d="M463.135,169.344l23.137,15.285l-7.447,11.271l-21.773-14.38c0.406-0.473,0.743-0.987,1.041-1.514
			c1.919-3.433,0.554-8.149-0.905-13.136c-0.162-0.568-0.338-1.176-0.514-1.798l1.865,1.23L463.135,169.344z"/>
	</g>
	<path class="st0" d="M150.658,400.016l-26.624-20.786c9.514-25.34-10.244-35.571-10.461-35.679c-0.689-0.351-1.5-0.446-2.257-0.27
		c-13.123,3-29.449-4.973-29.611-5.055c-1.095-0.554-2.406-0.459-3.419,0.23c-0.27,0.189-1.514,1.041-3.338,2.446l-36.098-28.179
		c-4.419-3.446-10.812-2.662-14.272,1.757L7.995,335.739c-3.46,4.419-2.676,10.825,1.743,14.272l37.639,29.381
		c-0.135,3.635,0.662,7.257,2.744,10.771c7.96,13.461,17.65,17.799,24.381,19.07c1.703,0.311,3.406,0.473,5.109,0.473
		c1.96,0,3.892-0.216,5.784-0.622l36.152,28.219c4.419,3.446,10.825,2.662,14.272-1.757l16.596-21.259
		C155.861,409.868,155.077,403.462,150.658,400.016z M13.901,344.686c-1.487-1.162-1.743-3.311-0.581-4.798l16.583-21.245
		c1.162-1.487,3.311-1.743,4.798-0.595l4.798,3.744l-4.987,6.393c-1.149,1.473-0.892,3.595,0.581,4.744
		c1.473,1.149,3.595,0.892,4.744-0.581l4.987-6.393l6.974,5.446l-9.15,11.717c-1.149,1.473-0.892,3.595,0.581,4.744
		c1.473,1.149,3.595,0.879,4.744-0.581l9.15-11.717l12.434,9.704c-7.298,6.271-17.069,16.15-20.718,26.692L13.901,344.686z
		 M77.38,402.813c-0.541-0.041-1.095-0.122-1.635-0.23c-5.352-1-13.137-4.581-19.799-15.853c-0.216-0.365-0.405-0.73-0.568-1.095
		c-1.351-2.865-1.5-5.974-0.77-9.163c1.041-4.663,3.906-9.501,7.528-14.028c5.676-7.122,13.191-13.501,18.313-17.245
		c0.04-0.014,0.068-0.041,0.108-0.068c4.906,2.135,18.488,7.284,30.922,5.014c3,1.973,11.758,9.244,6.92,24.678l-6.46-5.041
		c0.284-0.135,0.595-0.257,0.905-0.378c1.757-0.635,2.662-2.581,2.027-4.325c-0.635-1.757-2.581-2.662-4.325-2.027
		c-1.676,0.608-3.108,1.379-4.338,2.257c-1.96,1.419-3.419,3.135-4.527,5.041c-2.419,4.136-3.23,9.177-3.973,13.853
		c-0.014,0.068-0.014,0.122-0.027,0.189c-0.284,1.743-0.554,3.46-0.919,5.095c-0.824,3.825-2.068,7.149-4.717,9.217
		c-1.581,1.243-3.338,2.23-5.203,2.933C83.867,402.759,80.624,403.178,77.38,402.813z M147.09,410.138l-16.596,21.245
		c-1.162,1.487-3.311,1.743-4.798,0.595l-32.909-25.692c1.189-0.662,2.338-1.406,3.419-2.257c5.352-4.19,6.852-10.744,7.866-16.853
		l7.257-9.285l5.014,3.919l3.352,2.608l4.379,3.419l-9.15,11.717c-1.149,1.473-0.892,3.595,0.581,4.744
		c1.473,1.149,3.595,0.878,4.744-0.581l9.15-11.717l7.028,5.487l-4.987,6.393c-1.149,1.473-0.878,3.595,0.581,4.744
		c1.473,1.149,3.595,0.878,4.744-0.595l4.987-6.379l4.744,3.69C147.982,406.503,148.238,408.652,147.09,410.138z"/>
	<path class="st9" d="M48.837,371.959l-34.936-27.273c-1.487-1.162-1.743-3.311-0.581-4.798l16.583-21.245
		c1.162-1.487,3.311-1.743,4.798-0.595l4.798,3.744l-4.987,6.393c-1.149,1.473-0.892,3.595,0.581,4.744
		c1.473,1.149,3.595,0.892,4.744-0.581l4.987-6.393l6.974,5.446l-9.15,11.717c-1.149,1.473-0.892,3.595,0.581,4.744
		c1.473,1.149,3.595,0.879,4.744-0.581l9.15-11.717l12.434,9.704C62.257,351.538,52.486,361.417,48.837,371.959z"/>
	<path class="st3" d="M92.044,398.705c-1.581,1.243-3.338,2.23-5.203,2.933c-2.973,1.122-6.217,1.541-9.46,1.176
		c-0.541-0.041-1.095-0.122-1.635-0.23c-5.352-1-13.137-4.581-19.799-15.853c-0.216-0.365-0.405-0.73-0.568-1.095
		c-1.351-2.865-1.5-5.974-0.77-9.163c1.041-4.663,3.906-9.501,7.528-14.028c5.676-7.122,13.191-13.501,18.313-17.245
		c0.04-0.014,0.068-0.041,0.108-0.068c4.906,2.135,18.488,7.284,30.922,5.014c3,1.973,11.758,9.244,6.92,24.678l-6.46-5.041
		c0.284-0.135,0.595-0.257,0.905-0.378c1.757-0.635,2.662-2.581,2.027-4.325c-0.635-1.757-2.581-2.662-4.325-2.027
		c-1.676,0.608-3.108,1.379-4.338,2.257c-1.96,1.419-3.419,3.135-4.527,5.041c-2.419,4.136-3.23,9.177-3.973,13.853
		c-0.014,0.068-0.014,0.122-0.027,0.189c-0.284,1.743-0.554,3.46-0.919,5.095C95.936,393.312,94.693,396.637,92.044,398.705z"/>
	<path class="st9" d="M147.09,410.138l-16.596,21.245c-1.162,1.487-3.311,1.743-4.798,0.595l-32.909-25.692
		c1.189-0.662,2.338-1.406,3.419-2.257c5.352-4.19,6.852-10.744,7.866-16.853l7.257-9.285l5.014,3.919l3.352,2.608l4.379,3.419
		l-9.15,11.717c-1.149,1.473-0.892,3.595,0.581,4.744c1.473,1.149,3.595,0.878,4.744-0.581l9.15-11.717l7.028,5.487l-4.987,6.393
		c-1.149,1.473-0.878,3.595,0.581,4.744c1.473,1.149,3.595,0.878,4.744-0.595l4.987-6.379l4.744,3.69
		C147.982,406.503,148.238,408.652,147.09,410.138z"/>
	<path class="st3" d="M112.208,335.901c-0.284,1.96-1.324,3.69-2.933,4.865c-1.595,1.189-3.554,1.676-5.514,1.379l-13.366-2
		c-4.054-0.608-6.852-4.406-6.244-8.46c0.284-1.96,1.324-3.69,2.933-4.865c1.595-1.189,3.541-1.676,5.514-1.378l13.366,2
		C110.018,328.049,112.816,331.847,112.208,335.901z"/>
</g>
</svg>
