<?xml version="1.0" encoding="utf-8"?>
<!-- Generator: Adobe Illustrator 26.0.3, SVG Export Plug-In . SVG Version: 6.00 Build 0)  -->
<svg version="1.1" id="Layer_1" xmlns="http://www.w3.org/2000/svg" xmlns:xlink="http://www.w3.org/1999/xlink" x="0px" y="0px"
	 width="1000px" height="700px" viewBox="0 0 1000 700" style="enable-background:new 0 0 1000 700;" xml:space="preserve">
<style type="text/css">
	.st0{fill:#23C9A9;}
	.st1{fill:#FFFFFF;}
	.st2{opacity:0.8;fill:#FFFFFF;enable-background:new    ;}
</style>
<g>
	<rect y="0" class="st0" width="1000" height="700"/>
	<g>
		<g>
			<path d="M467.435,409.365c2.22,1.19,5.04,1.05,7.13-0.34l79.87-53.25c1.94-1.29,3.09-3.45,3.09-5.78c0-2.32-1.15-4.48-3.09-5.78
				l-79.87-53.25c-1.17-0.77-2.51-1.16-3.85-1.16c-1.13,0-2.25,0.27-3.28,0.82c-2.26,1.21-3.67,3.55-3.67,6.12v106.5
				C463.765,405.815,465.175,408.155,467.435,409.365z M477.655,309.715l60.41,40.28l-60.41,40.28V309.715z"/>
			<path d="M659.745,225.905h-319.5c-3.83,0-6.94,3.11-6.94,6.94v234.3c0,3.83,3.11,6.95,6.94,6.95h319.5
				c3.83,0,6.95-3.12,6.95-6.95v-234.3C666.695,229.015,663.575,225.905,659.745,225.905z M652.805,460.205h-305.62v-220.42h305.62
				V460.205z"/>
		</g>
		<polygon class="st1" points="477.655,309.708 477.655,390.268 538.065,349.988 		"/>
		<path class="st2" d="M347.185,239.778v220.42h305.62v-220.42L347.185,239.778L347.185,239.778z M554.435,355.768l-79.87,53.25
			c-2.09,1.39-4.91,1.53-7.13,0.34c-2.26-1.21-3.67-3.55-3.67-6.12v-106.5c0-2.57,1.41-4.91,3.67-6.12
			c1.03-0.55,2.15-0.82,3.28-0.82c1.34,0,2.68,0.39,3.85,1.16l79.87,53.25c1.94,1.3,3.09,3.46,3.09,5.78
			C557.525,352.318,556.375,354.478,554.435,355.768z"/>
	</g>
</g>
</svg>
