<?xml version="1.0" encoding="utf-8"?>
<!-- Generator: Adobe Illustrator 19.2.1, SVG Export Plug-In . SVG Version: 6.00 Build 0)  -->
<!DOCTYPE svg PUBLIC "-//W3C//DTD SVG 1.1//EN" "http://www.w3.org/Graphics/SVG/1.1/DTD/svg11.dtd">
<svg version="1.1" id="Layer_1" xmlns="http://www.w3.org/2000/svg" xmlns:xlink="http://www.w3.org/1999/xlink" x="0px" y="0px"
	 width="100px" height="100px" viewBox="0 0 100 100" style="enable-background:new 0 0 100 100;" xml:space="preserve">
<style type="text/css">
	.st0{fill:#1A1A1A;}
</style>
<g>
	<g>
		<path class="st0" d="M94.8,27.4l-6.2-5.3V4.4c0-2.4-2-4.4-4.4-4.4H7.9C5.6,0,3.8,1.9,3.8,4.1V89c0,2.4,2,4.4,4.4,4.4H27l-1.5,6.6
			l7-2.7l10.1-3.9h41.6c2.4,0,4.4-2,4.4-4.4V41l0.4-0.5l1.9-2.2l0.9-1l3.4-4C96.7,31.5,96.5,28.9,94.8,27.4z M8.2,92
			c-1.7,0-3-1.4-3-3V4.1c0-1.5,1.2-2.8,2.8-2.8h76.3c1.7,0,3,1.4,3,3v16.5l-0.5-0.4C85.1,19,82.4,19.2,81,21l-3.4,4l-0.9,1l-1.9,2.2
			L29.5,80.9l0.2,0.2L27.4,92H8.2z M87.2,39l0.7,0.6l-0.7,0.9L43.7,91.2L31.5,80.8l44.3-51.6L87.2,39z M31.4,96.3l-3-2.6l0.1-0.3
			l0.3-1.4l2.2-9.9L42.4,92l-0.1,0l-3.5,1.4L31.4,96.3z M87.2,89c0,1.7-1.4,3-3,3H44.9l42.4-49.4V89z M88.9,38.6l-0.3-0.2l-1.4-1.2
			l-10.6-9.1l1-1.2l9.5,8.2l1.4,1.2l1.3,1.1L88.9,38.6z M94.2,32.3l-3.4,4l-2.2-1.9l-1.4-1.2l-8.6-7.4l3.4-4c1-1.2,2.7-1.3,3.9-0.3
			l1.4,1.2l1.4,1.2l5.3,4.5C95.1,29.4,95.2,31.2,94.2,32.3z"/>
		<path class="st0" d="M41.8,84.5c0.3,0.2,0.7,0.2,1-0.1l38.3-44.7c0.2-0.3,0.2-0.7-0.1-1c-0.3-0.2-0.7-0.2-1,0.1L41.7,83.6
			C41.5,83.8,41.5,84.3,41.8,84.5z"/>
	</g>
	<g>
		<path class="st0" d="M64.9,26.3H18c-0.4,0-0.7-0.3-0.7-0.7s0.3-0.7,0.7-0.7h46.9c0.4,0,0.7,0.3,0.7,0.7S65.3,26.3,64.9,26.3z"/>
	</g>
	<g>
		<path class="st0" d="M54.5,38.5H18c-0.4,0-0.7-0.3-0.7-0.7s0.3-0.7,0.7-0.7h36.5c0.4,0,0.7,0.3,0.7,0.7S54.9,38.5,54.5,38.5z"/>
	</g>
	<g>
		<path class="st0" d="M44.5,50.7H18c-0.4,0-0.7-0.3-0.7-0.7s0.3-0.7,0.7-0.7h26.5c0.4,0,0.7,0.3,0.7,0.7S44.9,50.7,44.5,50.7z"/>
	</g>
	<g>
		<path class="st0" d="M33.5,62.8H18c-0.4,0-0.7-0.3-0.7-0.7c0-0.4,0.3-0.7,0.7-0.7h15.5c0.4,0,0.7,0.3,0.7,0.7
			C34.2,62.5,33.9,62.8,33.5,62.8z"/>
	</g>
</g>
<g>
</g>
<g>
</g>
<g>
</g>
<g>
</g>
<g>
</g>
<g>
</g>
<g>
</g>
<g>
</g>
<g>
</g>
<g>
</g>
<g>
</g>
<g>
</g>
<g>
</g>
<g>
</g>
<g>
</g>
</svg>
