<?xml version="1.0" encoding="utf-8"?>
<!-- Generator: Adobe Illustrator 25.1.0, SVG Export Plug-In . SVG Version: 6.00 Build 0)  -->
<svg version="1.1" id="Layer_1" xmlns="http://www.w3.org/2000/svg" xmlns:xlink="http://www.w3.org/1999/xlink" x="0px" y="0px"
	 width="50px" height="50px" viewBox="0 0 50 50" style="enable-background:new 0 0 50 50;" xml:space="preserve">
<style type="text/css">
	.st0{fill:#FFCB01;}
	.st1{fill:#D80613;}
</style>
<g>
	<path class="st0" d="M0,9.049h50v31.902H0V9.049z"/>
	<g>
		<path class="st1" d="M9.291,21.194l-1.548,2.104h8.439c0.427,0,0.421,0.161,0.213,0.445c-0.212,0.287-0.566,0.784-0.782,1.077
			c-0.11,0.148-0.308,0.417,0.348,0.417h3.451l1.023-1.39c0.634-0.861,0.055-2.652-2.212-2.652L9.291,21.194L9.291,21.194z"/>
		<path class="st1" d="M7.116,28.048l3.111-4.227h3.86c0.427,0,0.421,0.162,0.213,0.445l-0.787,1.073
			c-0.11,0.148-0.308,0.417,0.348,0.417h5.17c-0.429,0.59-1.825,2.292-4.328,2.292H7.116z M24.928,25.755l-1.687,2.293h-4.449
			l1.687-2.293H24.928z M31.742,25.236H20.862l2.975-4.042h4.447l-1.705,2.318h1.985l1.707-2.318h4.447L31.742,25.236z
			 M31.36,25.755l-1.687,2.293h-4.447l1.687-2.293H31.36z M0.768,26.66h6.553l-0.358,0.486H0.768V26.66z M0.768,25.755h7.219
			l-0.359,0.486H0.768V25.755z M0.768,27.564h5.888L6.3,28.048H0.768V27.564z M49.233,27.146h-6.53l0.359-0.486h6.171V27.146z
			 M49.233,28.048H42.04l0.355-0.484h6.837V28.048z M43.727,25.755h5.506v0.487h-5.863L43.727,25.755z M40.877,21.194l-2.975,4.042
			h-4.713l2.977-4.042H40.877z M32.808,25.755c0,0-0.325,0.445-0.483,0.658c-0.558,0.756-0.065,1.635,1.758,1.635h7.143l1.687-2.292
			L32.808,25.755L32.808,25.755z"/>
	</g>
</g>
</svg>
