<?xml version="1.0" encoding="utf-8"?>
<!-- Generator: Adobe Illustrator 25.1.0, SVG Export Plug-In . SVG Version: 6.00 Build 0)  -->
<svg version="1.1" id="Layer_1" xmlns="http://www.w3.org/2000/svg" xmlns:xlink="http://www.w3.org/1999/xlink" x="0px" y="0px"
	 width="50px" height="50px" viewBox="0 0 50 50" style="enable-background:new 0 0 50 50;" xml:space="preserve">
<style type="text/css">
	.st0{fill:#FF5A00;}
	.st1{fill:#29007C;}
</style>
<g>
	<path class="st0" d="M49.692,30.128c0-0.77-0.546-1.334-1.299-1.334c-0.751,0-1.298,0.564-1.298,1.334
		c0,0.769,0.547,1.332,1.298,1.332C49.146,31.46,49.692,30.896,49.692,30.128z M48.052,30.196v0.872H47.77v-1.922h0.7
		c0.41,0,0.598,0.179,0.598,0.528c0,0.215-0.145,0.385-0.332,0.41v0.008c0.162,0.026,0.222,0.171,0.256,0.436
		c0.026,0.172,0.06,0.47,0.121,0.54h-0.333c-0.077-0.181-0.07-0.436-0.129-0.65c-0.049-0.163-0.136-0.222-0.323-0.222h-0.273v0.001
		L48.052,30.196L48.052,30.196z M48.401,29.948c0.273,0,0.352-0.146,0.352-0.274c0-0.152-0.078-0.272-0.352-0.272h-0.349v0.547
		L48.401,29.948L48.401,29.948z M46.785,30.128c0-0.949,0.753-1.591,1.607-1.591c0.856,0,1.608,0.642,1.608,1.591
		c0,0.947-0.752,1.589-1.608,1.589C47.539,31.717,46.785,31.075,46.785,30.128z"/>
	<g>
		<path class="st0" d="M41.218,31.44l-1.852-2.077L37.53,31.44h-3.863l3.776-4.242l-3.776-4.243h3.984l1.871,2.061l1.8-2.061h3.844
			l-3.757,4.225l3.809,4.26L41.218,31.44z M26.249,31.44V18.074h7.418v2.979h-4.276v1.902h4.276v2.867h-4.276v2.631h4.276v2.987
			L26.249,31.44z"/>
	</g>
	<path class="st1" d="M23.118,18.074v5.47h-0.035c-0.693-0.796-1.559-1.074-2.563-1.074c-2.057,0-3.607,1.4-4.151,3.249
		c-0.621-2.038-2.221-3.287-4.593-3.287c-1.927,0-3.448,0.865-4.243,2.274v-1.751H3.55v-1.902h4.347v-2.979H0V31.44h3.55v-5.618
		h3.539c-0.109,0.432-0.163,0.876-0.162,1.322c0,2.787,2.13,4.745,4.849,4.745c2.286,0,3.793-1.074,4.59-3.029h-3.043
		c-0.411,0.588-0.724,0.762-1.547,0.762c-0.954,0-1.777-0.832-1.777-1.818h6.195c0.269,2.214,1.994,4.123,4.361,4.123
		c1.021,0,1.956-0.502,2.528-1.351h0.034v0.866h3.13V18.074L23.118,18.074L23.118,18.074L23.118,18.074z M10.098,25.862
		c0.198-0.849,0.856-1.404,1.678-1.404c0.905,0,1.53,0.538,1.694,1.404H10.098z M21.219,29.406c-1.153,0-1.87-1.075-1.87-2.197
		c0-1.2,0.624-2.353,1.87-2.353c1.293,0,1.809,1.153,1.809,2.353C23.027,28.346,22.482,29.406,21.219,29.406z"/>
</g>
</svg>
