<?xml version="1.0" encoding="utf-8"?>
<!-- Generator: Adobe Illustrator 25.1.0, SVG Export Plug-In . SVG Version: 6.00 Build 0)  -->
<svg version="1.1" id="Layer_1" xmlns="http://www.w3.org/2000/svg" xmlns:xlink="http://www.w3.org/1999/xlink" x="0px" y="0px"
	 width="50px" height="50px" viewBox="0 0 50 50" style="enable-background:new 0 0 50 50;" xml:space="preserve">
<style type="text/css">
	.st0{fill:#341B14;}
	.st1{fill:#FFB406;}
</style>
<g>
	<path class="st0" d="M25,48.137c0.414-0.207,11.178-4.865,14.594-7.659c3.519-2.898,5.382-7.038,5.382-12.006V5.184L44.665,5.08
		c-8.591-4.658-19.251-4.347-19.769-4.347c-0.414,0-11.075-0.311-19.665,4.347L5.024,5.184v23.391c0,4.968,1.863,9.108,5.382,12.006
		C13.822,43.376,24.586,48.033,25,48.137"/>
	<path class="st1" d="M25,48.654c0,0-11.385-4.968-14.904-7.763C6.37,37.787,4.61,33.543,4.61,28.679V4.459
		C13.615-0.405,25,0.009,25,0.009s11.385-0.414,20.39,4.451v24.116c0,4.865-1.76,9.108-5.486,12.213
		C36.385,43.686,25,48.654,25,48.654 M6.266,28.679c0,4.554,1.656,8.28,4.865,10.868c2.898,2.381,11.489,6.21,13.869,7.245
		c2.381-1.035,11.075-4.968,13.869-7.245c3.209-2.588,4.865-6.417,4.865-10.868V4.873C31.728,3.735,17.444,4.356,6.266,14.706
		L6.266,28.679L6.266,28.679z"/>
	<path class="st1" d="M36.489,25.263c1.553,0.932,2.174,1.553,2.277,2.691c0,1.242-0.828,1.967-2.174,1.967
		c-1.139,0-2.484-0.621-3.416-1.449v3.312c1.139,0.621,2.484,1.139,3.933,1.139c3.519,0,5.175-2.484,5.175-4.761
		c0.104-2.07-0.518-3.726-3.519-5.486c-1.346-0.828-2.381-1.346-2.381-2.588c0-1.242,1.139-1.76,2.07-1.76
		c1.242,0,2.484,0.725,3.209,1.449v-3.105c-0.621-0.518-1.967-1.242-3.933-1.139c-2.381,0.104-4.865,1.76-4.865,4.658
		C32.97,22.158,33.591,23.607,36.489,25.263 M24.275,32.715c0.311,0.104,0.828,0.207,1.656,0.207c4.037,0,6.314-3.623,6.314-8.798
		c0-5.279-2.381-8.487-6.624-8.487c-1.967,0-3.519,0.414-4.865,1.242v23.391h3.519V32.715L24.275,32.715z M24.275,18.639
		c0.311-0.104,0.828-0.311,1.242-0.311c2.07,0,2.898,1.656,2.898,5.693c0,3.933-1.035,5.796-3.105,5.796
		c-0.518,0-0.932-0.104-1.139-0.207V18.639H24.275z M13.408,32.922c2.174,0,4.037-0.518,5.382-1.449V15.844h-3.623v13.559
		c-0.414,0.311-0.932,0.414-1.656,0.414c-1.656,0-1.863-1.553-1.863-2.484V15.844H8.026v11.282
		C8.026,30.956,9.889,32.922,13.408,32.922 M37.524,46.895v2.381h0.414v-0.932h0.104l0.621,0.932h0.518c0,0-0.621-0.932-0.725-1.035
		c0.311-0.104,0.518-0.311,0.518-0.621s-0.207-0.725-0.828-0.725H37.524L37.524,46.895z M38.145,47.205
		c0.311,0,0.414,0.207,0.414,0.311c0,0.207-0.103,0.414-0.518,0.414h-0.104v-0.725H38.145L38.145,47.205z"/>
	<path class="st1" d="M39.801,48.033c0,0.828-0.725,1.553-1.553,1.553s-1.553-0.725-1.553-1.553s0.725-1.553,1.553-1.553
		C39.18,46.481,39.801,47.205,39.801,48.033 M38.248,46.067c-1.035,0-1.967,0.828-1.967,1.967c0,1.035,0.828,1.967,1.967,1.967
		c1.035,0,1.967-0.828,1.967-1.967C40.215,46.998,39.283,46.067,38.248,46.067"/>
</g>
</svg>
