<?xml version="1.0" encoding="utf-8"?>
<!-- Generator: Adobe Illustrator 25.1.0, SVG Export Plug-In . SVG Version: 6.00 Build 0)  -->
<svg version="1.1" id="Layer_1" xmlns="http://www.w3.org/2000/svg" xmlns:xlink="http://www.w3.org/1999/xlink" x="0px" y="0px"
	 width="50px" height="50px" viewBox="0 0 50 50" style="enable-background:new 0 0 50 50;" xml:space="preserve">
<style type="text/css">
	.st0{fill-rule:evenodd;clip-rule:evenodd;fill:#FFFFFF;}
	.st1{fill-rule:evenodd;clip-rule:evenodd;fill:#304C9C;}
</style>
<g>
	<g>
		<path class="st0" d="M43.375,40.582L50,9.418H6.624L0,40.582H43.375z"/>
		<path class="st1" d="M7.529,10.706c0,0,24.117,4.958,24.595,5.039c5.541,0.978,5.37,2.048,5.37,2.048
			c3.88-0.022,4.357,0.137,5.036,0.702c2.043,1.707-1.277,6.728-1.277,6.728c-0.474,0.354-36.351,14.21-36.351,14.21h37.534
			l6.139-28.864L7.552,10.574L7.529,10.706L7.529,10.706z"/>
		<path class="st1" d="M35.608,20.056c-0.544,0.269-1.968,0.415-2.63,0.474c-0.643,0.054-0.815,0.118-0.825,0.363
			c-0.01,0.22,0.095,0.346,1.012,0.346c2.107,0,5.902-0.796,7.045-0.432c0.603,0.191,0.115,1.27-0.375,2.681
			c-0.191,0.546,0.184,0.511,0.402,0.268c0.22-0.236,1.202-2.039,1.309-2.958c0.15-1.303-0.963-1.499-2.508-1.499h-2.452
			c-0.126,0-0.234,0.087-0.385,0.288C36.066,19.765,35.955,19.879,35.608,20.056L35.608,20.056z"/>
		<path class="st1" d="M6.134,17.243L1.424,39.44c0,0,14.434-7.084,16.195-7.991c3.619-1.855,8.618-4.315,13.24-5.89
			c0.882-0.3,4.657-1.461,6.851-1.852c0.856-0.154,1.213-0.296,1.202-0.454c-0.031-0.456-0.885-0.482-2.336-0.415
			c-4.424,0.21-12.904,3.584-15.341,4.872l-2.756-8.537H36.08c0.788-2.217-10.417-1.909-10.77-1.93H6.134z"/>
	</g>
</g>
</svg>
