<?xml version="1.0" encoding="utf-8"?>
<!-- Generator: Adobe Illustrator 24.2.0, SVG Export Plug-In . SVG Version: 6.00 Build 0)  -->
<svg version="1.1" id="Layer_1" xmlns="http://www.w3.org/2000/svg" xmlns:xlink="http://www.w3.org/1999/xlink" x="0px" y="0px"
	 width="600px" height="750px" viewBox="0 0 600 750" style="enable-background:new 0 0 600 750;" xml:space="preserve">
<style type="text/css">
	.st0{fill:#23C9A9;}
	.st1{opacity:0.7;}
	.st2{opacity:0.9;}
	.st3{fill:#FFFFFF;}
</style>
<g id="Layer_2_1_">
	<rect class="st0" width="600" height="750"/>
</g>
<g>
	<g>
		<g class="st1">
			<g>
				<g>
					<g>
						<path d="M441.98,354.96l-0.07-0.02c-2.86-1.01-4.76-1.68-6.26-2.51c-44.66-17.91-87.95-40.91-128.66-68.35
							c-1.74-1.17-3.11-2.09-3.61-2.39l-0.25-0.16c-0.73-0.48-1.54-0.73-2.38-0.73h-46.48c-2.34,0-4.24,1.9-4.24,4.25v22.48
							c0,10.06-8.19,18.25-18.25,18.25h-44.97c-10.06,0-18.24-8.19-18.24-18.25c0-14.74-12-26.73-26.74-26.73h-22.49
							c-2.34,0-4.24,1.9-4.24,4.25v179.9c0,2.35,1.9,4.25,4.24,4.25h361.32c2.34,0,4.24-1.9,4.24-4.25v-59.5
							C484.9,370.06,455.91,359.86,441.98,354.96z M123.59,379.25h18.24c17.2,0,32.63,10.91,38.39,27.15l2.84,8l0.47,1.33h-59.94
							V379.25z M476.41,460.71H123.59v-36.49h352.82V460.71z M476.41,415.73H191.2l-0.16-0.8l-0.98-4.8
							c-4.65-22.82-24.93-39.38-48.23-39.38h-18.24v-81.46h18.24c10.06,0,18.24,8.19,18.24,18.24c0,14.75,12,26.74,26.74,26.74
							h44.97c14.75,0,26.74-11.99,26.74-26.74v-18.24h40.94l0.25,0.17l1.5,1.01c1,0.66,1.96,1.29,2.93,1.95l0.8,0.53
							c2.59,1.72,5.27,3.5,8.99,5.92l6.22,4.03l1.04,0.67l-0.87,0.88l-22.57,22.57c-1.66,1.66-1.66,4.35,0,6.01
							c0.8,0.8,1.86,1.24,3,1.24c1.13,0,2.2-0.44,3.01-1.25l24.88-24.88l0.67,0.4l4.02,2.42c7.23,4.36,14.76,8.7,22.39,12.91
							l6.98,3.85l1.17,0.65l-0.94,0.94l-20.21,20.2c-1.65,1.65-1.65,4.35,0,6.01c0.81,0.8,1.87,1.24,3.01,1.24
							c1.13,0,2.2-0.44,3-1.24L371.24,333l0.51-0.51l0.65,0.33l3.88,1.97c7.97,4.05,15.97,7.94,23.78,11.54l7.8,3.6l1.3,0.6
							l-1.01,1.02L387.7,372c-1.66,1.65-1.66,4.35,0,6c0.8,0.81,1.87,1.25,3,1.25c1.14,0,2.2-0.44,3.01-1.25l23.39-23.4l0.48-0.48
							l0.62,0.27l3.72,1.56c6.45,2.72,9.92,4.1,15.67,6.4l0.93,0.37c3.15,1.25,7,2.79,12.29,4.92c15.55,6.22,25.6,21.06,25.6,37.81
							V415.73z"/>
					</g>
				</g>
			</g>
		</g>
	</g>
	<g class="st2">
		<path class="st3" d="M183.53,415.73h-59.94v-36.48h18.24c17.2,0,32.63,10.91,38.39,27.15l2.84,8L183.53,415.73z"/>
		<path class="st3" d="M476.41,405.45v10.28H191.2l-0.16-0.8l-0.98-4.8c-4.65-22.82-24.93-39.38-48.23-39.38h-18.24v-81.46h18.24
			c10.06,0,18.24,8.19,18.24,18.24c0,14.75,12,26.74,26.74,26.74h44.97c14.75,0,26.74-11.99,26.74-26.74v-18.24h40.94l0.25,0.17
			l1.5,1.01c1,0.66,1.96,1.29,2.93,1.95l0.8,0.53c2.59,1.72,5.27,3.5,8.99,5.92l6.22,4.03l1.04,0.67l-0.87,0.88l-22.57,22.57
			c-1.66,1.66-1.66,4.35,0,6.01c0.8,0.8,1.86,1.24,3,1.24c1.13,0,2.2-0.44,3.01-1.25l24.88-24.88l0.67,0.4l4.02,2.42
			c7.23,4.36,14.76,8.7,22.39,12.91l6.98,3.85l1.17,0.65l-0.94,0.94l-20.21,20.2c-1.65,1.65-1.65,4.35,0,6.01
			c0.81,0.8,1.87,1.24,3.01,1.24c1.13,0,2.2-0.44,3-1.24L371.24,333l0.51-0.51l0.65,0.33l3.88,1.97
			c7.97,4.05,15.97,7.94,23.78,11.54l7.8,3.6l1.3,0.6l-1.01,1.02L387.7,372c-1.66,1.65-1.66,4.35,0,6c0.8,0.81,1.87,1.25,3,1.25
			c1.14,0,2.2-0.44,3.01-1.25l23.39-23.4l0.48-0.48l0.62,0.27l3.72,1.56c6.45,2.72,9.92,4.1,15.67,6.4l0.93,0.37
			c3.15,1.25,7,2.79,12.29,4.92C466.36,373.86,476.41,388.7,476.41,405.45z"/>
		<rect x="123.59" y="424.22" class="st3" width="352.82" height="36.49"/>
	</g>
</g>
</svg>
