<?xml version="1.0" encoding="utf-8"?>
<!-- Generator: Adobe Illustrator 24.1.2, SVG Export Plug-In . SVG Version: 6.00 Build 0)  -->
<svg version="1.1" id="Layer_1" xmlns="http://www.w3.org/2000/svg" xmlns:xlink="http://www.w3.org/1999/xlink" x="0px" y="0px"
	 width="600px" height="750px" viewBox="0 0 600 750" style="enable-background:new 0 0 600 750;" xml:space="preserve">
<style type="text/css">
	.st0{fill:#EC407A;}
	.st1{opacity:0.7;}
	.st2{opacity:0.9;fill:#FFFFFF;enable-background:new    ;}
</style>
<g id="Layer_2_1_">
	<rect class="st0" width="600" height="750"/>
</g>
<g id="Layer_1_1_">
	<g class="st1">
		<path d="M490.185,295.605l-0.15-0.135L409.62,224.1c-0.405-0.375-0.84-0.63-1.32-0.81l-58.215-20.775
			c-2.04-0.735-4.275,0.3-5.01,2.325c-0.135,0.36-0.21,0.75-0.24,1.125c-0.075,1.575-0.93,12.555-6.945,23.235
			c-6.03,10.68-17.25,21.03-38.055,21.36c-34.335-0.525-44.67-29.415-45.36-44.61c-0.12-2.04-1.845-3.645-3.9-3.645h-0.21
			c-0.375,0.015-0.735,0.09-1.08,0.21l-58.14,21.015c-0.465,0.165-0.9,0.42-1.275,0.765l-79.995,71.25
			c-0.66,0.63-1.095,1.605-1.125,2.64s0.36,2.025,1.065,2.775l0.15,0.135l64.83,65.445v177.3c0,2.145,1.755,3.885,3.9,3.885h242.61
			c2.145,0,3.885-1.74,3.885-3.885v-177.3l64.77-65.355c0.825-0.795,1.26-1.77,1.29-2.805S490.89,296.355,490.185,295.605z
			 M425.19,355.275v-44.76c0-2.055-1.41-3.81-3.285-4.08c-1.17-0.18-2.28,0.15-3.15,0.9c-0.855,0.735-1.335,1.815-1.335,2.94v228.72
			H182.58v-228.48c0-2.055-1.41-3.81-3.285-4.08c-1.17-0.18-2.28,0.15-3.15,0.9c-0.855,0.735-1.35,1.815-1.35,2.94v45.075
			l-56.235-56.97l76.32-68.295l52.695-19.02l0.825,4.305c5.535,28.485,33.225,47.175,61.71,41.64
			c21.18-4.11,37.53-20.46,41.64-41.64l0.825-4.305l52.71,19.02l76.065,68.295L425.19,355.275z"/>
	</g>
	<path class="st2" d="M405.285,230.085l76.065,68.295l-56.16,56.895v-44.76c0-2.055-1.41-3.81-3.285-4.08
		c-1.17-0.18-2.28,0.15-3.15,0.9c-0.855,0.735-1.335,1.815-1.335,2.94v228.72H182.58v-228.48c0-2.055-1.41-3.81-3.285-4.08
		c-1.17-0.18-2.28,0.15-3.15,0.9c-0.855,0.735-1.35,1.815-1.35,2.94v45.075l-56.235-56.97l76.32-68.295l52.695-19.02l0.825,4.305
		c5.535,28.485,33.225,47.175,61.71,41.64c21.18-4.11,37.53-20.46,41.64-41.64l0.825-4.305L405.285,230.085z"/>
</g>
</svg>
