<?xml version="1.0" encoding="utf-8"?>
<!-- Generator: Adobe Illustrator 23.0.1, SVG Export Plug-In . SVG Version: 6.00 Build 0)  -->
<svg version="1.1" id="Layer_1" xmlns="http://www.w3.org/2000/svg" xmlns:xlink="http://www.w3.org/1999/xlink" x="0px" y="0px"
	 width="134px" height="33.27px" viewBox="0 0 134 33.27" style="enable-background:new 0 0 134 33.27;" xml:space="preserve">
<style type="text/css">
	.st0{fill:#FFFFFF;}
	.st1{fill:#B7F9EC;}
</style>
<g>
	<path class="st0" d="M0,28.713V8.766V7.992c0-2.551,1.261-3.826,3.783-3.826h0.774h4.858c0.573,0,1.204,0.05,1.891,0.15
		c0.688,0.101,1.376,0.222,2.063,0.365c2.579,0.602,4.585,2.064,6.019,4.385c0.516,0.86,0.917,1.777,1.203,2.751
		c0.286,0.975,0.43,1.949,0.43,2.923c0,0.975-0.136,1.928-0.408,2.859c-0.273,0.932-0.666,1.805-1.182,2.622
		c-0.516,0.817-1.133,1.555-1.848,2.214c-0.717,0.66-1.519,1.204-2.407,1.633c-0.774,0.373-1.548,0.631-2.321,0.774
		c-0.774,0.144-1.806,0.215-3.095,0.215H6.577v3.654v0.731c-0.029,1.118-0.337,2.014-0.924,2.687
		c-0.588,0.674-1.383,1.01-2.386,1.01c-1.004,0-1.799-0.344-2.386-1.032C0.293,31.421,0,30.533,0,29.444V28.713z M9.157,19.04
		c0.974,0,1.669-0.035,2.085-0.107c0.415-0.071,0.824-0.222,1.225-0.451c0.659-0.372,1.189-0.895,1.59-1.569
		c0.401-0.673,0.602-1.382,0.602-2.128c0-0.802-0.23-1.569-0.688-2.3c-0.459-0.731-1.047-1.268-1.762-1.612
		c-0.631-0.286-1.648-0.43-3.052-0.43H6.577v8.598H9.157z"/>
	<path class="st0" d="M26.271,4.123c0.946,0,1.748,0.33,2.407,0.989c0.659,0.66,0.989,1.462,0.989,2.407s-0.337,1.756-1.01,2.429
		c-0.674,0.674-1.498,1.01-2.472,1.01c-0.459,0-0.896-0.093-1.311-0.279c-0.416-0.186-0.781-0.43-1.096-0.731
		c-0.316-0.301-0.566-0.652-0.753-1.053c-0.187-0.401-0.279-0.831-0.279-1.29c0-1.003,0.336-1.834,1.01-2.493
		C24.429,4.453,25.267,4.123,26.271,4.123z M23.434,29.315V16.031v-0.645c0.028-0.974,0.301-1.748,0.817-2.321
		c0.516-0.573,1.189-0.86,2.02-0.86c0.86,0,1.555,0.294,2.085,0.881c0.53,0.588,0.795,1.354,0.795,2.3v0.645v13.284v0.645
		c-0.029,0.975-0.301,1.748-0.817,2.321c-0.516,0.573-1.19,0.86-2.021,0.86c-0.86,0-1.555-0.294-2.085-0.881
		c-0.531-0.587-0.795-1.354-0.795-2.3V29.315z"/>
	<path class="st0" d="M32.805,22.608c0-1.433,0.279-2.794,0.838-4.084c0.559-1.29,1.318-2.414,2.278-3.375
		c0.96-0.96,2.078-1.72,3.353-2.279c1.275-0.559,2.629-0.838,4.062-0.838c1.089,0,2.171,0.171,3.246,0.513
		c1.075,0.341,2.056,0.811,2.945,1.408c0.774,0.54,1.311,1.031,1.612,1.472c0.301,0.441,0.451,0.961,0.451,1.558
		c0,0.799-0.279,1.47-0.838,2.014c-0.559,0.545-1.254,0.817-2.085,0.817c-0.344,0-0.631-0.043-0.86-0.129
		c-0.23-0.086-0.545-0.286-0.946-0.602c-0.631-0.487-1.182-0.831-1.655-1.032c-0.473-0.2-1.01-0.301-1.612-0.301
		c-0.688,0-1.34,0.13-1.956,0.39c-0.617,0.261-1.147,0.615-1.591,1.063c-0.445,0.449-0.795,0.969-1.053,1.562
		c-0.258,0.592-0.387,1.221-0.387,1.886c0,0.695,0.129,1.338,0.387,1.931c0.258,0.592,0.609,1.106,1.053,1.54
		c0.444,0.434,0.96,0.78,1.548,1.04c0.587,0.26,1.225,0.39,1.913,0.39c0.888,0,1.619-0.186,2.192-0.559
		c0.086-0.057,0.251-0.172,0.495-0.344c0.243-0.172,0.566-0.401,0.967-0.688c0.315-0.229,0.609-0.394,0.881-0.494
		c0.272-0.1,0.566-0.15,0.881-0.15c0.802,0,1.483,0.279,2.042,0.838c0.559,0.559,0.838,1.238,0.838,2.037
		c0,0.626-0.244,1.237-0.731,1.834c-0.488,0.598-1.125,1.138-1.913,1.622c-0.789,0.484-1.677,0.875-2.665,1.173
		c-0.989,0.298-1.999,0.448-3.031,0.448c-1.461,0-2.844-0.279-4.148-0.838c-1.305-0.559-2.437-1.325-3.396-2.3
		c-0.961-0.974-1.719-2.106-2.278-3.396C33.084,25.446,32.805,24.07,32.805,22.608z"/>
	<path class="st0" d="M71.409,29.315c0,0.746-0.043,1.297-0.129,1.655c-0.086,0.359-0.258,0.709-0.516,1.053
		c-0.574,0.746-1.348,1.118-2.321,1.118c-0.602,0-1.117-0.137-1.547-0.408s-0.803-0.723-1.118-1.354
		c-0.832,0.66-1.633,1.133-2.407,1.419c-0.774,0.286-1.59,0.43-2.45,0.43c-1.004,0-1.934-0.187-2.794-0.559
		c-0.86-0.372-1.612-0.895-2.257-1.569c-0.645-0.673-1.147-1.454-1.504-2.343c-0.359-0.888-0.538-1.848-0.538-2.88
		c0-1.06,0.194-2.049,0.581-2.966c0.387-0.917,0.917-1.712,1.59-2.386c0.673-0.673,1.461-1.204,2.364-1.591
		c0.903-0.387,1.884-0.58,2.945-0.58c0.716,0,1.411,0.101,2.085,0.301c0.673,0.201,1.397,0.502,2.171,0.903
		c0-1.06-0.193-1.806-0.58-2.235c-0.387-0.43-1.039-0.645-1.956-0.645c-0.459,0-0.974,0.075-1.547,0.225l-1.375,0.405
		c-0.402,0.15-0.738,0.247-1.01,0.292c-0.273,0.045-0.523,0.067-0.753,0.067c-0.66,0-1.197-0.216-1.612-0.65
		c-0.416-0.433-0.624-0.981-0.624-1.645c0-1.126,0.63-2.028,1.892-2.706c1.261-0.678,2.908-1.018,4.944-1.018
		c1.404,0,2.687,0.193,3.847,0.58c1.161,0.387,2.114,0.953,2.859,1.698c0.63,0.66,1.081,1.469,1.354,2.429
		c0.272,0.961,0.408,2.214,0.408,3.762v8.426V29.315z M65.563,25.704c0-0.831-0.265-1.533-0.795-2.106
		c-0.531-0.573-1.211-0.86-2.042-0.86c-0.774,0-1.434,0.279-1.978,0.838c-0.545,0.559-0.817,1.24-0.817,2.042
		c0,0.832,0.272,1.519,0.817,2.063c0.544,0.545,1.232,0.817,2.064,0.817c0.802,0,1.461-0.265,1.977-0.795
		C65.305,27.173,65.563,26.506,65.563,25.704z"/>
	<path class="st0" d="M123.382,12.076c1.461,0,2.837,0.279,4.127,0.838c1.29,0.559,2.414,1.319,3.375,2.279
		c0.96,0.961,1.72,2.085,2.278,3.375c0.559,1.29,0.838,2.68,0.838,4.17c0,1.434-0.279,2.788-0.838,4.063
		c-0.559,1.276-1.326,2.393-2.3,3.353c-0.975,0.961-2.106,1.72-3.396,2.278c-1.289,0.559-2.665,0.838-4.127,0.838
		c-1.462,0-2.845-0.273-4.149-0.817c-1.305-0.544-2.436-1.29-3.396-2.235c-0.961-0.946-1.727-2.049-2.3-3.31
		c-0.574-1.261-0.86-2.608-0.86-4.041c0-1.519,0.28-2.937,0.838-4.256c0.559-1.318,1.318-2.457,2.278-3.418
		c0.96-0.96,2.092-1.72,3.396-2.279C120.451,12.355,121.862,12.076,123.382,12.076z M123.382,17.794
		c-0.688,0-1.333,0.129-1.934,0.387c-0.602,0.258-1.125,0.609-1.569,1.053c-0.445,0.445-0.789,0.967-1.032,1.569
		c-0.244,0.602-0.365,1.262-0.365,1.977c0,0.631,0.129,1.233,0.387,1.806c0.258,0.574,0.609,1.075,1.053,1.505
		c0.444,0.43,0.96,0.767,1.547,1.01c0.587,0.244,1.211,0.365,1.87,0.365c0.659,0,1.282-0.129,1.87-0.387
		c0.587-0.258,1.103-0.602,1.547-1.032c0.444-0.43,0.795-0.938,1.053-1.526c0.258-0.587,0.387-1.21,0.387-1.87
		c0-0.688-0.129-1.325-0.387-1.913c-0.258-0.587-0.602-1.096-1.032-1.526c-0.43-0.43-0.939-0.774-1.526-1.032
		C124.664,17.923,124.041,17.794,123.382,17.794z"/>
	<path class="st0" d="M87.744,12.473H77.345c-0.868,0-1.576,0.238-2.129,0.717c-0.548,0.475-0.825,1.118-0.825,1.93
		c0,0.782,0.268,1.412,0.803,1.892c0.535,0.475,1.252,0.73,2.151,0.76h6.344L87.744,12.473z"/>
	<path class="st0" d="M108.986,27.734h-5.951l2.6-3.394l5.351-6.987c0.492-0.665,0.738-1.274,0.738-1.822
		c0-0.928-0.328-1.667-0.98-2.215c-0.579-0.494-1.332-0.762-2.25-0.814l0.008-0.011h-0.341h-0.751h-9.324
		c-0.868,0-1.581,0.238-2.129,0.717c-0.548,0.475-0.825,1.118-0.825,1.93c0,0.782,0.268,1.412,0.803,1.892
		c0.536,0.475,1.252,0.73,2.151,0.76h5.266l-2.07,2.703l-0.009-0.009l-5.402,7.031c-0.259,0.35-0.479,0.648-0.652,0.89
		c-0.173,0.25-0.302,0.458-0.389,0.63c-0.091,0.177-0.147,0.341-0.177,0.501c-0.026,0.16-0.043,0.341-0.043,0.544
		c0,0.492,0.151,0.989,0.458,1.499c0.302,0.505,0.687,0.872,1.149,1.106c0.289,0.147,0.566,0.238,0.825,0.281
		c0.23,0.038,0.515,0.061,0.853,0.067l-0.002,0.002h0.151h0.941h10.002c0.868,0,1.572-0.246,2.107-0.738
		c0.535-0.492,0.803-1.131,0.803-1.913s-0.259-1.412-0.782-1.887C110.593,28.015,109.884,27.76,108.986,27.734z"/>
	<path class="st0" d="M88.249,27.717h-6.612l-4.055,5.299h10.667c0.868,0,1.568-0.246,2.103-0.738
		c0.536-0.492,0.803-1.131,0.803-1.913s-0.259-1.412-0.782-1.887C89.855,27.998,89.143,27.743,88.249,27.717z"/>
	<path class="st1" d="M97.382,5.068L80.058,31.738c-0.976,1.502-2.985,1.929-4.487,0.953c-1.502-0.976-1.929-2.984-0.953-4.487
		c0.062-0.095,0.13-0.189,0.2-0.275L94.842,3.221c0.547-0.675,1.537-0.778,2.212-0.232C97.683,3.499,97.811,4.402,97.382,5.068z"/>
	<path class="st1" d="M81.274,1.692L77.86,8.468c-0.598,1.187-2.045,1.665-3.232,1.067c-1.187-0.598-1.665-2.045-1.067-3.232
		c0.119-0.236,0.279-0.451,0.456-0.628l5.393-5.338c0.458-0.453,1.197-0.45,1.65,0.008C81.422,0.711,81.492,1.257,81.274,1.692z"/>
	<path class="st1" d="M108.996,3.653l-2.079,3.904c-0.399,0.748-1.329,1.032-2.077,0.633c-0.748-0.399-1.032-1.329-0.633-2.077
		c0.087-0.163,0.204-0.308,0.334-0.425l3.303-2.941c0.307-0.273,0.778-0.246,1.051,0.061C109.107,3.047,109.137,3.386,108.996,3.653
		z"/>
</g>
</svg>
