<?xml version="1.0" encoding="utf-8"?>
<!-- Generator: Adobe Illustrator 19.2.1, SVG Export Plug-In . SVG Version: 6.00 Build 0)  -->
<!DOCTYPE svg PUBLIC "-//W3C//DTD SVG 1.1//EN" "http://www.w3.org/Graphics/SVG/1.1/DTD/svg11.dtd">
<svg version="1.1" id="Layer_1" xmlns="http://www.w3.org/2000/svg" xmlns:xlink="http://www.w3.org/1999/xlink" x="0px" y="0px"
	 width="700px" height="525px" viewBox="0 0 700 525" style="enable-background:new 0 0 700 525;" xml:space="preserve">
<style type="text/css">
	.st0{opacity:0.15;enable-background:new    ;}
</style>
<g id="Layer_1_1_">
	<path class="st0" d="M428.3,191.4h-18.5l-1.2-7.5c-0.3-1.5-1.6-2.6-3.1-2.6c-0.2,0-0.3,0-0.5,0l-61,10h-51.2
		c-1.8,0-3.3,1.5-3.3,3.3v5.6l-18.5,3.1c-1.7,0.3-2.9,1.9-2.6,3.6L290.5,341c0.3,1.5,1.6,2.6,3.1,2.6c0.2,0,0.3,0,0.5,0l61-10h73.3
		c1.8,0,3.3-1.5,3.3-3.3V194.7C431.7,192.9,430.2,191.4,428.3,191.4z M356.4,232.3c0,6.4-5.2,11.4-11.4,11.4
		c-6.4,0-11.6-5-11.6-11.4c0-6.2,5.2-11.4,11.6-11.4C351.2,220.9,356.4,226.1,356.4,232.3z M338,251l17.8,19.2l23.6-32.9l31.5,48.7
		h-95.4L338,251z M405.1,184.9l1.1,6.5h-40.4L405.1,184.9z M289.5,204v110l-18-107L289.5,204z M293.9,340.5l-1.2-6.9l0,0H335
		L293.9,340.5z"/>
</g>
</svg>
